Interstate_Mono-Light.ufo
<glyph name="exclam" format="1">
  <advance width="600"/>
  <unicode hex="0021"/>
  <outline>
    <contour>
      <point x="277" y="220" type="line"/>
      <point x="258" y="393" type="line"/>
      <point x="258" y="700" type="line"/>
      <point x="341" y="700" type="line"/>
      <point x="341" y="393" type="line"/>
      <point x="322" y="220" type="line"/>
    </contour>
    <contour>
      <point x="300" y="-11" type="curve" smooth="yes"/>
      <point x="262" y="-11"/>
      <point x="233" y="18"/>
      <point x="233" y="56" type="curve" smooth="yes"/>
      <point x="233" y="95"/>
      <point x="262" y="124"/>
      <point x="300" y="124" type="curve" smooth="yes"/>
      <point x="338" y="124"/>
      <point x="367" y="95"/>
      <point x="367" y="56" type="curve" smooth="yes"/>
      <point x="367" y="18"/>
      <point x="338" y="-11"/>
    </contour>
  </outline>
</glyph>
<glyph name="quotedbl" format="1">
  <advance width="600"/>
  <unicode hex="0022"/>
  <outline>
    <contour>
      <point x="374" y="393" type="line"/>
      <point x="357" y="700" type="line"/>
      <point x="451" y="700" type="line"/>
      <point x="434" y="393" type="line"/>
    </contour>
    <contour>
      <point x="166" y="393" type="line"/>
      <point x="149" y="700" type="line"/>
      <point x="243" y="700" type="line"/>
      <point x="226" y="393" type="line"/>
    </contour>
  </outline>
</glyph>
<glyph name="numbersign" format="1">
  <advance width="600"/>
  <unicode hex="0023"/>
  <outline>
    <contour>
      <point x="159" y="0" type="line"/>
      <point x="159" y="175" type="line"/>
      <point x="62" y="175" type="line"/>
      <point x="62" y="239" type="line"/>
      <point x="159" y="239" type="line"/>
      <point x="159" y="462" type="line"/>
      <point x="62" y="462" type="line"/>
      <point x="62" y="526" type="line"/>
      <point x="159" y="526" type="line"/>
      <point x="159" y="700" type="line"/>
      <point x="224" y="700" type="line"/>
      <point x="224" y="526" type="line"/>
      <point x="376" y="526" type="line"/>
      <point x="376" y="700" type="line"/>
      <point x="441" y="700" type="line"/>
      <point x="441" y="526" type="line"/>
      <point x="538" y="526" type="line"/>
      <point x="538" y="462" type="line"/>
      <point x="441" y="462" type="line"/>
      <point x="441" y="239" type="line"/>
      <point x="538" y="239" type="line"/>
      <point x="538" y="175" type="line"/>
      <point x="441" y="175" type="line"/>
      <point x="441" y="0" type="line"/>
      <point x="376" y="0" type="line"/>
      <point x="376" y="175" type="line"/>
      <point x="224" y="175" type="line"/>
      <point x="224" y="0" type="line"/>
    </contour>
    <contour>
      <point x="224" y="239" type="line"/>
      <point x="376" y="239" type="line"/>
      <point x="376" y="462" type="line"/>
      <point x="224" y="462" type="line"/>
    </contour>
  </outline>
</glyph>
<glyph name="dollar" format="1">
  <advance width="600"/>
  <unicode hex="0024"/>
  <outline>
    <contour>
      <point x="264" y="-97" type="line"/>
      <point x="264" y="1" type="line"/>
      <point x="184" y="9"/>
      <point x="117" y="49"/>
      <point x="72" y="104" type="curve"/>
      <point x="125" y="156" type="line"/>
      <point x="166" y="109"/>
      <point x="212" y="79"/>
      <point x="267" y="71" type="curve"/>
      <point x="267" y="331" type="line"/>
      <point x="138" y="377"/>
      <point x="91" y="436"/>
      <point x="91" y="532" type="curve" smooth="yes"/>
      <point x="91" y="629"/>
      <point x="159" y="689"/>
      <point x="264" y="699" type="curve"/>
      <point x="264" y="797" type="line"/>
      <point x="329" y="797" type="line"/>
      <point x="329" y="700" type="line"/>
      <point x="403" y="693"/>
      <point x="452" y="664"/>
      <point x="500" y="618" type="curve"/>
      <point x="447" y="561" type="line"/>
      <point x="409" y="598"/>
      <point x="374" y="621"/>
      <point x="326" y="629" type="curve"/>
      <point x="326" y="388" type="line"/>
      <point x="459" y="343"/>
      <point x="514" y="289"/>
      <point x="514" y="189" type="curve" smooth="yes"/>
      <point x="514" y="90"/>
      <point x="446" y="14"/>
      <point x="329" y="1" type="curve"/>
      <point x="329" y="-97" type="line"/>
    </contour>
    <contour>
      <point x="267" y="409" type="curve"/>
      <point x="267" y="630" type="line"/>
      <point x="197" y="622"/>
      <point x="167" y="585"/>
      <point x="167" y="536" type="curve" smooth="yes"/>
      <point x="167" y="476"/>
      <point x="175" y="446"/>
    </contour>
    <contour>
      <point x="326" y="71" type="line"/>
      <point x="396" y="80"/>
      <point x="437" y="121"/>
      <point x="437" y="184" type="curve" smooth="yes"/>
      <point x="437" y="245"/>
      <point x="422" y="274"/>
      <point x="326" y="310" type="curve"/>
    </contour>
  </outline>
</glyph>
<glyph name="percent" format="1">
  <advance width="600"/>
  <unicode hex="0025"/>
  <outline>
    <contour>
      <point x="148" y="334" type="curve" smooth="yes"/>
      <point x="85" y="334"/>
      <point x="34" y="393"/>
      <point x="34" y="523" type="curve" smooth="yes"/>
      <point x="34" y="653"/>
      <point x="86" y="711"/>
      <point x="148" y="711" type="curve" smooth="yes"/>
      <point x="210" y="711"/>
      <point x="263" y="653"/>
      <point x="263" y="523" type="curve" smooth="yes"/>
      <point x="263" y="393"/>
      <point x="212" y="334"/>
    </contour>
    <contour>
      <point x="101" y="0" type="line"/>
      <point x="444" y="700" type="line"/>
      <point x="502" y="700" type="line"/>
      <point x="156" y="0" type="line"/>
    </contour>
    <contour>
      <point x="451" y="-11" type="curve" smooth="yes"/>
      <point x="388" y="-11"/>
      <point x="337" y="48"/>
      <point x="337" y="178" type="curve" smooth="yes"/>
      <point x="337" y="308"/>
      <point x="389" y="366"/>
      <point x="451" y="366" type="curve" smooth="yes"/>
      <point x="513" y="366"/>
      <point x="566" y="308"/>
      <point x="566" y="178" type="curve" smooth="yes"/>
      <point x="566" y="48"/>
      <point x="515" y="-11"/>
    </contour>
    <contour>
      <point x="149" y="385" type="curve" smooth="yes"/>
      <point x="181" y="385"/>
      <point x="205" y="419"/>
      <point x="205" y="522" type="curve" smooth="yes"/>
      <point x="205" y="625"/>
      <point x="181" y="660"/>
      <point x="148" y="660" type="curve" smooth="yes"/>
      <point x="115" y="660"/>
      <point x="92" y="626"/>
      <point x="92" y="524" type="curve" smooth="yes"/>
      <point x="92" y="421"/>
      <point x="117" y="385"/>
    </contour>
    <contour>
      <point x="452" y="40" type="curve" smooth="yes"/>
      <point x="484" y="40"/>
      <point x="508" y="74"/>
      <point x="508" y="177" type="curve" smooth="yes"/>
      <point x="508" y="280"/>
      <point x="484" y="315"/>
      <point x="451" y="315" type="curve" smooth="yes"/>
      <point x="418" y="315"/>
      <point x="395" y="281"/>
      <point x="395" y="179" type="curve" smooth="yes"/>
      <point x="395" y="76"/>
      <point x="420" y="40"/>
    </contour>
  </outline>
</glyph>
<glyph name="ampersand" format="1">
  <advance width="600"/>
  <unicode hex="0026"/>
  <outline>
    <contour>
      <point x="252" y="-11" type="curve" smooth="yes"/>
      <point x="131" y="-11"/>
      <point x="72" y="70"/>
      <point x="72" y="174" type="curve" smooth="yes"/>
      <point x="72" y="270"/>
      <point x="127" y="337"/>
      <point x="209" y="390" type="curve"/>
      <point x="182" y="431" type="line" smooth="yes"/>
      <point x="153" y="475"/>
      <point x="132" y="519"/>
      <point x="132" y="567" type="curve" smooth="yes"/>
      <point x="132" y="650"/>
      <point x="187" y="711"/>
      <point x="289" y="711" type="curve" smooth="yes"/>
      <point x="363" y="711"/>
      <point x="411" y="682"/>
      <point x="453" y="639" type="curve"/>
      <point x="409" y="584" type="line"/>
      <point x="368" y="626"/>
      <point x="335" y="643"/>
      <point x="287" y="643" type="curve" smooth="yes"/>
      <point x="231" y="643"/>
      <point x="203" y="615"/>
      <point x="203" y="571" type="curve" smooth="yes"/>
      <point x="203" y="538"/>
      <point x="213" y="508"/>
      <point x="237" y="471" type="curve" smooth="yes"/>
      <point x="416" y="199" type="line"/>
      <point x="434" y="241"/>
      <point x="449" y="291"/>
      <point x="461" y="341" type="curve"/>
      <point x="524" y="323" type="line"/>
      <point x="507" y="257"/>
      <point x="485" y="192"/>
      <point x="457" y="137" type="curve"/>
      <point x="547" y="0" type="line"/>
      <point x="466" y="0" type="line"/>
      <point x="416" y="75" type="line"/>
      <point x="375" y="22"/>
      <point x="322" y="-11"/>
    </contour>
    <contour>
      <point x="256" y="56" type="curve" smooth="yes"/>
      <point x="308" y="56"/>
      <point x="348" y="85"/>
      <point x="379" y="131" type="curve"/>
      <point x="245" y="336" type="line"/>
      <point x="180" y="292"/>
      <point x="144" y="244"/>
      <point x="144" y="178" type="curve" smooth="yes"/>
      <point x="144" y="105"/>
      <point x="183" y="56"/>
    </contour>
  </outline>
</glyph>
<glyph name="quotesingle" format="1">
  <advance width="600"/>
  <unicode hex="0027"/>
  <outline>
    <contour>
      <point x="270" y="393" type="line"/>
      <point x="253" y="700" type="line"/>
      <point x="347" y="700" type="line"/>
      <point x="330" y="393" type="line"/>
    </contour>
  </outline>
</glyph>
<glyph name="parenleft" format="1">
  <advance width="600"/>
  <unicode hex="0028"/>
  <outline>
    <contour>
      <point x="417" y="-108" type="line"/>
      <point x="314" y="-33"/>
      <point x="167" y="97"/>
      <point x="167" y="299" type="curve" smooth="yes"/>
      <point x="167" y="511"/>
      <point x="314" y="640"/>
      <point x="417" y="715" type="curve"/>
      <point x="449" y="677" type="line"/>
      <point x="340" y="590"/>
      <point x="248" y="479"/>
      <point x="248" y="305" type="curve" smooth="yes"/>
      <point x="248" y="124"/>
      <point x="340" y="17"/>
      <point x="451" y="-72" type="curve"/>
    </contour>
  </outline>
</glyph>
<glyph name="parenright" format="1">
  <advance width="600"/>
  <unicode hex="0029"/>
  <outline>
    <contour>
      <point x="183" y="-108" type="curve"/>
      <point x="149" y="-72" type="line"/>
      <point x="260" y="17"/>
      <point x="352" y="124"/>
      <point x="352" y="305" type="curve" smooth="yes"/>
      <point x="352" y="479"/>
      <point x="260" y="590"/>
      <point x="151" y="677" type="curve"/>
      <point x="183" y="715" type="line"/>
      <point x="286" y="640"/>
      <point x="433" y="511"/>
      <point x="433" y="299" type="curve" smooth="yes"/>
      <point x="433" y="97"/>
      <point x="286" y="-33"/>
    </contour>
  </outline>
</glyph>
<glyph name="asterisk" format="1">
  <advance width="600"/>
  <unicode hex="002A"/>
  <outline>
    <contour>
      <point x="266" y="330" type="line"/>
      <point x="286" y="492" type="line"/>
      <point x="156" y="394" type="line"/>
      <point x="125" y="451" type="line"/>
      <point x="270" y="515" type="line"/>
      <point x="124" y="578" type="line"/>
      <point x="156" y="636" type="line"/>
      <point x="286" y="537" type="line"/>
      <point x="266" y="700" type="line"/>
      <point x="331" y="700" type="line"/>
      <point x="314" y="537" type="line"/>
      <point x="445" y="636" type="line"/>
      <point x="476" y="578" type="line"/>
      <point x="330" y="515" type="line"/>
      <point x="476" y="451" type="line"/>
      <point x="445" y="394" type="line"/>
      <point x="314" y="492" type="line"/>
      <point x="331" y="330" type="line"/>
    </contour>
  </outline>
</glyph>
<glyph name="plus" format="1">
  <advance width="600"/>
  <unicode hex="002B"/>
  <outline>
    <contour>
      <point x="264" y="112" type="line"/>
      <point x="264" y="310" type="line"/>
      <point x="73" y="310" type="line"/>
      <point x="73" y="378" type="line"/>
      <point x="264" y="378" type="line"/>
      <point x="264" y="576" type="line"/>
      <point x="336" y="576" type="line"/>
      <point x="336" y="378" type="line"/>
      <point x="527" y="378" type="line"/>
      <point x="527" y="310" type="line"/>
      <point x="336" y="310" type="line"/>
      <point x="336" y="112" type="line"/>
    </contour>
  </outline>
</glyph>
<glyph name="comma" format="1">
  <advance width="600"/>
  <unicode hex="002C"/>
  <outline>
    <contour>
      <point x="224" y="-119" type="line"/>
      <point x="244" y="145" type="line"/>
      <point x="369" y="145" type="line"/>
      <point x="284" y="-119" type="line"/>
    </contour>
  </outline>
</glyph>
<glyph name="period" format="1">
  <advance width="600"/>
  <unicode hex="002E"/>
  <outline>
    <contour>
      <point x="300" y="-11" type="curve" smooth="yes"/>
      <point x="254" y="-11"/>
      <point x="217" y="24"/>
      <point x="217" y="72" type="curve" smooth="yes"/>
      <point x="217" y="119"/>
      <point x="254" y="154"/>
      <point x="300" y="154" type="curve" smooth="yes"/>
      <point x="346" y="154"/>
      <point x="383" y="119"/>
      <point x="383" y="72" type="curve" smooth="yes"/>
      <point x="383" y="24"/>
      <point x="346" y="-11"/>
    </contour>
  </outline>
</glyph>
<glyph name="slash" format="1">
  <advance width="600"/>
  <unicode hex="002F"/>
  <outline>
    <contour>
      <point x="72" y="-90" type="line"/>
      <point x="456" y="790" type="line"/>
      <point x="528" y="790" type="line"/>
      <point x="144" y="-90" type="line"/>
    </contour>
  </outline>
</glyph>
<glyph name="zero" format="1">
  <advance width="600"/>
  <unicode hex="0030"/>
  <outline>
    <contour>
      <point x="300" y="-11" type="curve" smooth="yes"/>
      <point x="159" y="-11"/>
      <point x="77" y="117"/>
      <point x="77" y="350" type="curve" smooth="yes"/>
      <point x="77" y="583"/>
      <point x="159" y="711"/>
      <point x="300" y="711" type="curve" smooth="yes"/>
      <point x="441" y="711"/>
      <point x="524" y="583"/>
      <point x="524" y="350" type="curve" smooth="yes"/>
      <point x="524" y="117"/>
      <point x="441" y="-11"/>
    </contour>
    <contour>
      <point x="300" y="59" type="curve" smooth="yes"/>
      <point x="401" y="59"/>
      <point x="446" y="161"/>
      <point x="446" y="350" type="curve" smooth="yes"/>
      <point x="446" y="539"/>
      <point x="401" y="641"/>
      <point x="300" y="641" type="curve" smooth="yes"/>
      <point x="199" y="641"/>
      <point x="155" y="539"/>
      <point x="155" y="350" type="curve" smooth="yes"/>
      <point x="155" y="161"/>
      <point x="200" y="59"/>
    </contour>
  </outline>
</glyph>
<glyph name="one" format="1">
  <advance width="600"/>
  <unicode hex="0031"/>
  <outline>
    <contour>
      <point x="126" y="0" type="line"/>
      <point x="126" y="67" type="line"/>
      <point x="273" y="67" type="line"/>
      <point x="273" y="558" type="line"/>
      <point x="135" y="558" type="line"/>
      <point x="135" y="611" type="line"/>
      <point x="226" y="616"/>
      <point x="278" y="635"/>
      <point x="292" y="700" type="curve"/>
      <point x="350" y="700" type="line"/>
      <point x="350" y="67" type="line"/>
      <point x="487" y="67" type="line"/>
      <point x="487" y="0" type="line"/>
    </contour>
  </outline>
</glyph>
<glyph name="two" format="1">
  <advance width="600"/>
  <unicode hex="0032"/>
  <outline>
    <contour>
      <point x="86" y="0" type="line"/>
      <point x="92" y="182"/>
      <point x="163" y="258"/>
      <point x="284" y="355" type="curve" smooth="yes"/>
      <point x="382" y="434"/>
      <point x="408" y="469"/>
      <point x="408" y="529" type="curve" smooth="yes"/>
      <point x="408" y="600"/>
      <point x="368" y="643"/>
      <point x="290" y="643" type="curve" smooth="yes"/>
      <point x="223" y="643"/>
      <point x="186" y="614"/>
      <point x="149" y="566" type="curve"/>
      <point x="97" y="611" type="line"/>
      <point x="144" y="669"/>
      <point x="197" y="711"/>
      <point x="294" y="711" type="curve" smooth="yes"/>
      <point x="406" y="711"/>
      <point x="484" y="650"/>
      <point x="484" y="533" type="curve" smooth="yes"/>
      <point x="484" y="439"/>
      <point x="439" y="391"/>
      <point x="333" y="307" type="curve" smooth="yes"/>
      <point x="210" y="209"/>
      <point x="179" y="160"/>
      <point x="168" y="70" type="curve"/>
      <point x="489" y="70" type="line"/>
      <point x="489" y="0" type="line"/>
    </contour>
  </outline>
</glyph>
<glyph name="three" format="1">
  <advance width="600"/>
  <unicode hex="0033"/>
  <outline>
    <contour>
      <point x="273" y="-11" type="curve" smooth="yes"/>
      <point x="188" y="-11"/>
      <point x="117" y="35"/>
      <point x="77" y="101" type="curve"/>
      <point x="133" y="144" type="line"/>
      <point x="169" y="88"/>
      <point x="218" y="57"/>
      <point x="277" y="57" type="curve" smooth="yes"/>
      <point x="373" y="57"/>
      <point x="418" y="112"/>
      <point x="418" y="199" type="curve" smooth="yes"/>
      <point x="418" y="291"/>
      <point x="360" y="335"/>
      <point x="270" y="335" type="curve" smooth="yes"/>
      <point x="232" y="335" type="line"/>
      <point x="232" y="401" type="line"/>
      <point x="274" y="401" type="line" smooth="yes"/>
      <point x="355" y="401"/>
      <point x="396" y="448"/>
      <point x="396" y="528" type="curve" smooth="yes"/>
      <point x="396" y="594"/>
      <point x="361" y="643"/>
      <point x="275" y="643" type="curve" smooth="yes"/>
      <point x="222" y="643"/>
      <point x="181" y="616"/>
      <point x="149" y="569" type="curve"/>
      <point x="97" y="610" type="line"/>
      <point x="134" y="666"/>
      <point x="193" y="711"/>
      <point x="278" y="711" type="curve" smooth="yes"/>
      <point x="388" y="711"/>
      <point x="470" y="647"/>
      <point x="470" y="535" type="curve" smooth="yes"/>
      <point x="470" y="447"/>
      <point x="431" y="400"/>
      <point x="375" y="371" type="curve"/>
      <point x="437" y="356"/>
      <point x="493" y="311"/>
      <point x="493" y="201" type="curve" smooth="yes"/>
      <point x="493" y="69"/>
      <point x="408" y="-11"/>
    </contour>
  </outline>
</glyph>
<glyph name="four" format="1">
  <advance width="600"/>
  <unicode hex="0034"/>
  <outline>
    <contour>
      <point x="386" y="0" type="line"/>
      <point x="386" y="169" type="line"/>
      <point x="53" y="169" type="line"/>
      <point x="53" y="233" type="line"/>
      <point x="378" y="700" type="line"/>
      <point x="461" y="700" type="line"/>
      <point x="461" y="237" type="line"/>
      <point x="540" y="237" type="line"/>
      <point x="540" y="169" type="line"/>
      <point x="461" y="169" type="line"/>
      <point x="461" y="0" type="line"/>
    </contour>
    <contour>
      <point x="135" y="237" type="curve"/>
      <point x="136" y="237"/>
      <point x="183" y="237"/>
      <point x="185" y="237" type="curve" smooth="yes"/>
      <point x="386" y="237" type="line"/>
      <point x="386" y="535" type="line" smooth="yes"/>
      <point x="386" y="542"/>
      <point x="387" y="592"/>
      <point x="387" y="598" type="curve"/>
      <point x="368" y="569"/>
      <point x="335" y="523"/>
      <point x="304" y="478" type="curve" smooth="yes"/>
      <point x="217" y="350" type="line" smooth="yes"/>
      <point x="189" y="309"/>
      <point x="156" y="265"/>
    </contour>
  </outline>
</glyph>
<glyph name="five" format="1">
  <advance width="600"/>
  <unicode hex="0035"/>
  <outline>
    <contour>
      <point x="282" y="-11" type="curve" smooth="yes"/>
      <point x="201" y="-11"/>
      <point x="139" y="32"/>
      <point x="99" y="88" type="curve"/>
      <point x="151" y="135" type="line"/>
      <point x="188" y="89"/>
      <point x="227" y="56"/>
      <point x="287" y="56" type="curve" smooth="yes"/>
      <point x="382" y="56"/>
      <point x="421" y="123"/>
      <point x="421" y="230" type="curve" smooth="yes"/>
      <point x="421" y="325"/>
      <point x="382" y="384"/>
      <point x="296" y="384" type="curve" smooth="yes"/>
      <point x="241" y="384"/>
      <point x="211" y="360"/>
      <point x="179" y="325" type="curve"/>
      <point x="114" y="347" type="line"/>
      <point x="135" y="700" type="line"/>
      <point x="466" y="700" type="line"/>
      <point x="466" y="630" type="line"/>
      <point x="200" y="630" type="line"/>
      <point x="183" y="400" type="line"/>
      <point x="211" y="427"/>
      <point x="249" y="449"/>
      <point x="304" y="449" type="curve" smooth="yes"/>
      <point x="431" y="449"/>
      <point x="497" y="365"/>
      <point x="497" y="233" type="curve" smooth="yes"/>
      <point x="497" y="77"/>
      <point x="417" y="-11"/>
    </contour>
  </outline>
</glyph>
<glyph name="six" format="1">
  <advance width="600"/>
  <unicode hex="0036"/>
  <outline>
    <contour>
      <point x="307" y="-11" type="curve" smooth="yes"/>
      <point x="186" y="-11"/>
      <point x="93" y="76"/>
      <point x="93" y="263" type="curve" smooth="yes"/>
      <point x="93" y="456"/>
      <point x="186" y="669"/>
      <point x="425" y="711" type="curve"/>
      <point x="425" y="640" type="line"/>
      <point x="291" y="608"/>
      <point x="200" y="514"/>
      <point x="173" y="355" type="curve"/>
      <point x="205" y="400"/>
      <point x="253" y="428"/>
      <point x="323" y="428" type="curve" smooth="yes"/>
      <point x="435" y="428"/>
      <point x="518" y="346"/>
      <point x="518" y="211" type="curve" smooth="yes"/>
      <point x="518" y="74"/>
      <point x="428" y="-11"/>
    </contour>
    <contour>
      <point x="307" y="57" type="curve" smooth="yes"/>
      <point x="393" y="57"/>
      <point x="443" y="115"/>
      <point x="443" y="208" type="curve" smooth="yes"/>
      <point x="443" y="304"/>
      <point x="393" y="360"/>
      <point x="308" y="360" type="curve" smooth="yes"/>
      <point x="220" y="360"/>
      <point x="171" y="298"/>
      <point x="171" y="209" type="curve" smooth="yes"/>
      <point x="171" y="120"/>
      <point x="227" y="57"/>
    </contour>
  </outline>
</glyph>
<glyph name="seven" format="1">
  <advance width="600"/>
  <unicode hex="0037"/>
  <outline>
    <contour>
      <point x="191" y="0" type="line"/>
      <point x="198" y="252"/>
      <point x="286" y="461"/>
      <point x="414" y="630" type="curve"/>
      <point x="60" y="630" type="line"/>
      <point x="60" y="700" type="line"/>
      <point x="499" y="700" type="line"/>
      <point x="499" y="631" type="line"/>
      <point x="376" y="479"/>
      <point x="273" y="274"/>
      <point x="268" y="0" type="curve"/>
    </contour>
  </outline>
</glyph>
<glyph name="eight" format="1">
  <advance width="600"/>
  <unicode hex="0038"/>
  <outline>
    <contour>
      <point x="299" y="-11" type="curve" smooth="yes"/>
      <point x="161" y="-11"/>
      <point x="72" y="68"/>
      <point x="72" y="198" type="curve" smooth="yes"/>
      <point x="72" y="287"/>
      <point x="122" y="349"/>
      <point x="193" y="377" type="curve"/>
      <point x="137" y="402"/>
      <point x="96" y="453"/>
      <point x="96" y="527" type="curve" smooth="yes"/>
      <point x="96" y="630"/>
      <point x="171" y="711"/>
      <point x="301" y="711" type="curve" smooth="yes"/>
      <point x="432" y="711"/>
      <point x="504" y="630"/>
      <point x="504" y="529" type="curve" smooth="yes"/>
      <point x="504" y="456"/>
      <point x="465" y="407"/>
      <point x="407" y="379" type="curve"/>
      <point x="478" y="351"/>
      <point x="528" y="289"/>
      <point x="528" y="199" type="curve" smooth="yes"/>
      <point x="528" y="68"/>
      <point x="437" y="-11"/>
    </contour>
    <contour>
      <point x="301" y="407" type="curve" smooth="yes"/>
      <point x="379" y="407"/>
      <point x="431" y="463"/>
      <point x="431" y="527" type="curve" smooth="yes"/>
      <point x="431" y="586"/>
      <point x="393" y="644"/>
      <point x="299" y="644" type="curve" smooth="yes"/>
      <point x="206" y="644"/>
      <point x="171" y="588"/>
      <point x="171" y="529" type="curve" smooth="yes"/>
      <point x="171" y="463"/>
      <point x="220" y="407"/>
    </contour>
    <contour>
      <point x="301" y="56" type="curve" smooth="yes"/>
      <point x="403" y="56"/>
      <point x="454" y="116"/>
      <point x="454" y="198" type="curve" smooth="yes"/>
      <point x="454" y="278"/>
      <point x="397" y="341"/>
      <point x="299" y="341" type="curve" smooth="yes"/>
      <point x="201" y="341"/>
      <point x="148" y="279"/>
      <point x="148" y="199" type="curve" smooth="yes"/>
      <point x="148" y="118"/>
      <point x="198" y="56"/>
    </contour>
  </outline>
</glyph>
<glyph name="nine" format="1">
  <advance width="600"/>
  <unicode hex="0039"/>
  <outline>
    <contour>
      <point x="175" y="-11" type="curve"/>
      <point x="175" y="60" type="line"/>
      <point x="309" y="92"/>
      <point x="400" y="186"/>
      <point x="427" y="345" type="curve"/>
      <point x="395" y="300"/>
      <point x="347" y="272"/>
      <point x="277" y="272" type="curve" smooth="yes"/>
      <point x="165" y="272"/>
      <point x="82" y="354"/>
      <point x="82" y="489" type="curve" smooth="yes"/>
      <point x="82" y="626"/>
      <point x="172" y="711"/>
      <point x="293" y="711" type="curve" smooth="yes"/>
      <point x="414" y="711"/>
      <point x="507" y="624"/>
      <point x="507" y="437" type="curve" smooth="yes"/>
      <point x="507" y="244"/>
      <point x="414" y="31"/>
    </contour>
    <contour>
      <point x="292" y="340" type="curve" smooth="yes"/>
      <point x="380" y="340"/>
      <point x="429" y="402"/>
      <point x="429" y="491" type="curve" smooth="yes"/>
      <point x="429" y="580"/>
      <point x="373" y="643"/>
      <point x="293" y="643" type="curve" smooth="yes"/>
      <point x="207" y="643"/>
      <point x="157" y="585"/>
      <point x="157" y="492" type="curve" smooth="yes"/>
      <point x="157" y="396"/>
      <point x="207" y="340"/>
    </contour>
  </outline>
</glyph>
<glyph name="colon" format="1">
  <advance width="600"/>
  <unicode hex="003A"/>
  <outline>
    <contour>
      <point x="300" y="379" type="curve" smooth="yes"/>
      <point x="256" y="379"/>
      <point x="221" y="412"/>
      <point x="221" y="458" type="curve" smooth="yes"/>
      <point x="221" y="503"/>
      <point x="256" y="536"/>
      <point x="300" y="536" type="curve" smooth="yes"/>
      <point x="344" y="536"/>
      <point x="379" y="503"/>
      <point x="379" y="458" type="curve" smooth="yes"/>
      <point x="379" y="412"/>
      <point x="344" y="379"/>
    </contour>
    <contour>
      <point x="300" y="-11" type="curve" smooth="yes"/>
      <point x="256" y="-11"/>
      <point x="221" y="22"/>
      <point x="221" y="68" type="curve" smooth="yes"/>
      <point x="221" y="113"/>
      <point x="256" y="146"/>
      <point x="300" y="146" type="curve" smooth="yes"/>
      <point x="344" y="146"/>
      <point x="379" y="113"/>
      <point x="379" y="68" type="curve" smooth="yes"/>
      <point x="379" y="22"/>
      <point x="344" y="-11"/>
    </contour>
  </outline>
</glyph>
<glyph name="semicolon" format="1">
  <advance width="600"/>
  <unicode hex="003B"/>
  <outline>
    <contour>
      <point x="299" y="379" type="curve" smooth="yes"/>
      <point x="255" y="379"/>
      <point x="220" y="412"/>
      <point x="220" y="458" type="curve" smooth="yes"/>
      <point x="220" y="503"/>
      <point x="255" y="536"/>
      <point x="299" y="536" type="curve" smooth="yes"/>
      <point x="343" y="536"/>
      <point x="378" y="503"/>
      <point x="378" y="458" type="curve" smooth="yes"/>
      <point x="378" y="412"/>
      <point x="343" y="379"/>
    </contour>
    <contour>
      <point x="215" y="-119" type="line"/>
      <point x="235" y="145" type="line"/>
      <point x="360" y="145" type="line"/>
      <point x="275" y="-119" type="line"/>
    </contour>
  </outline>
</glyph>
<glyph name="less" format="1">
  <advance width="600"/>
  <unicode hex="003C"/>
  <outline>
    <contour>
      <point x="441" y="26" type="line"/>
      <point x="142" y="298" type="line"/>
      <point x="142" y="370" type="line"/>
      <point x="441" y="642" type="line"/>
      <point x="441" y="553" type="line"/>
      <point x="200" y="334" type="line"/>
      <point x="441" y="116" type="line"/>
    </contour>
  </outline>
</glyph>
<glyph name="equal" format="1">
  <advance width="600"/>
  <unicode hex="003D"/>
  <outline>
    <contour>
      <point x="97" y="418" type="line"/>
      <point x="97" y="486" type="line"/>
      <point x="503" y="486" type="line"/>
      <point x="503" y="418" type="line"/>
    </contour>
    <contour>
      <point x="97" y="202" type="line"/>
      <point x="97" y="270" type="line"/>
      <point x="503" y="270" type="line"/>
      <point x="503" y="202" type="line"/>
    </contour>
  </outline>
</glyph>
<glyph name="greater" format="1">
  <advance width="600"/>
  <unicode hex="003E"/>
  <outline>
    <contour>
      <point x="159" y="26" type="line"/>
      <point x="159" y="115" type="line"/>
      <point x="400" y="333" type="line"/>
      <point x="159" y="552" type="line"/>
      <point x="159" y="642" type="line"/>
      <point x="458" y="370" type="line"/>
      <point x="458" y="298" type="line"/>
    </contour>
  </outline>
</glyph>
<glyph name="question" format="1">
  <advance width="600"/>
  <unicode hex="003F"/>
  <outline>
    <contour>
      <point x="238" y="220" type="line"/>
      <point x="238" y="313"/>
      <point x="250" y="351"/>
      <point x="354" y="416" type="curve" smooth="yes"/>
      <point x="406" y="448"/>
      <point x="435" y="477"/>
      <point x="435" y="537" type="curve" smooth="yes"/>
      <point x="435" y="605"/>
      <point x="387" y="642"/>
      <point x="295" y="642" type="curve" smooth="yes"/>
      <point x="216" y="642"/>
      <point x="163" y="611"/>
      <point x="112" y="565" type="curve"/>
      <point x="65" y="617" type="line"/>
      <point x="120" y="671"/>
      <point x="197" y="711"/>
      <point x="298" y="711" type="curve" smooth="yes"/>
      <point x="424" y="711"/>
      <point x="511" y="651"/>
      <point x="511" y="542" type="curve" smooth="yes"/>
      <point x="511" y="443"/>
      <point x="462" y="404"/>
      <point x="389" y="359" type="curve" smooth="yes"/>
      <point x="322" y="318"/>
      <point x="312" y="289"/>
      <point x="312" y="220" type="curve"/>
    </contour>
    <contour>
      <point x="274" y="-11" type="curve" smooth="yes"/>
      <point x="236" y="-11"/>
      <point x="207" y="18"/>
      <point x="207" y="56" type="curve" smooth="yes"/>
      <point x="207" y="95"/>
      <point x="236" y="124"/>
      <point x="274" y="124" type="curve" smooth="yes"/>
      <point x="312" y="124"/>
      <point x="341" y="95"/>
      <point x="341" y="56" type="curve" smooth="yes"/>
      <point x="341" y="18"/>
      <point x="312" y="-11"/>
    </contour>
  </outline>
</glyph>
<glyph name="at" format="1">
  <advance width="600"/>
  <unicode hex="0040"/>
  <outline>
    <contour>
      <point x="300" y="-11" type="curve" smooth="yes"/>
      <point x="141" y="-11"/>
      <point x="41" y="130"/>
      <point x="41" y="350" type="curve" smooth="yes"/>
      <point x="41" y="570"/>
      <point x="141" y="711"/>
      <point x="300" y="711" type="curve" smooth="yes"/>
      <point x="461" y="711"/>
      <point x="559" y="561"/>
      <point x="559" y="360" type="curve" smooth="yes"/>
      <point x="559" y="203"/>
      <point x="521" y="153"/>
      <point x="453" y="153" type="curve" smooth="yes"/>
      <point x="415" y="153"/>
      <point x="390" y="171"/>
      <point x="376" y="198" type="curve"/>
      <point x="350" y="170"/>
      <point x="322" y="152"/>
      <point x="281" y="152" type="curve" smooth="yes"/>
      <point x="217" y="152"/>
      <point x="177" y="197"/>
      <point x="177" y="285" type="curve" smooth="yes"/>
      <point x="177" y="372"/>
      <point x="224" y="415"/>
      <point x="292" y="415" type="curve" smooth="yes"/>
      <point x="323" y="415"/>
      <point x="341" y="407"/>
      <point x="357" y="397" type="curve"/>
      <point x="357" y="459" type="line" smooth="yes"/>
      <point x="357" y="497"/>
      <point x="341" y="515"/>
      <point x="297" y="515" type="curve" smooth="yes"/>
      <point x="274" y="515"/>
      <point x="251" y="506"/>
      <point x="226" y="487" type="curve"/>
      <point x="202" y="523" type="line"/>
      <point x="232" y="548"/>
      <point x="266" y="563"/>
      <point x="304" y="563" type="curve" smooth="yes"/>
      <point x="367" y="563"/>
      <point x="404" y="539"/>
      <point x="404" y="462" type="curve" smooth="yes"/>
      <point x="404" y="262" type="line" smooth="yes"/>
      <point x="404" y="223"/>
      <point x="419" y="198"/>
      <point x="455" y="198" type="curve" smooth="yes"/>
      <point x="494" y="198"/>
      <point x="511" y="239"/>
      <point x="511" y="360" type="curve" smooth="yes"/>
      <point x="511" y="552"/>
      <point x="429" y="666"/>
      <point x="300" y="666" type="curve" smooth="yes"/>
      <point x="165" y="666"/>
      <point x="88" y="546"/>
      <point x="88" y="351" type="curve" smooth="yes"/>
      <point x="88" y="156"/>
      <point x="165" y="34"/>
      <point x="302" y="34" type="curve" smooth="yes"/>
      <point x="339" y="34"/>
      <point x="372" y="45"/>
      <point x="401" y="64" type="curve"/>
      <point x="420" y="25" type="line"/>
      <point x="381" y="1"/>
      <point x="344" y="-11"/>
    </contour>
    <contour>
      <point x="288" y="198" type="curve" smooth="yes"/>
      <point x="315" y="198"/>
      <point x="341" y="213"/>
      <point x="357" y="235" type="curve"/>
      <point x="357" y="351" type="line"/>
      <point x="341" y="362"/>
      <point x="321" y="370"/>
      <point x="290" y="370" type="curve" smooth="yes"/>
      <point x="249" y="370"/>
      <point x="228" y="337"/>
      <point x="228" y="286" type="curve" smooth="yes"/>
      <point x="228" y="231"/>
      <point x="246" y="198"/>
    </contour>
  </outline>
</glyph>
<glyph name="A" format="1">
  <advance width="600"/>
  <unicode hex="0041"/>
  <outline>
    <contour>
      <point x="63" y="0" type="line"/>
      <point x="260" y="700" type="line"/>
      <point x="342" y="700" type="line"/>
      <point x="538" y="0" type="line"/>
      <point x="461" y="0" type="line"/>
      <point x="413" y="178" type="line"/>
      <point x="186" y="178" type="line"/>
      <point x="137" y="0" type="line"/>
    </contour>
    <contour>
      <point x="205" y="248" type="line"/>
      <point x="394" y="248" type="line"/>
      <point x="339" y="445" type="line" smooth="yes"/>
      <point x="323" y="504"/>
      <point x="307" y="575"/>
      <point x="299" y="618" type="curve"/>
      <point x="292" y="575"/>
      <point x="276" y="504"/>
      <point x="259" y="443" type="curve" smooth="yes"/>
    </contour>
  </outline>
</glyph>
<glyph name="B" format="1">
  <advance width="600"/>
  <unicode hex="0042"/>
  <outline>
    <contour>
      <point x="101" y="0" type="line"/>
      <point x="101" y="700" type="line"/>
      <point x="321" y="700" type="line" smooth="yes"/>
      <point x="430" y="700"/>
      <point x="503" y="640"/>
      <point x="503" y="523" type="curve" smooth="yes"/>
      <point x="503" y="443"/>
      <point x="460" y="400"/>
      <point x="406" y="378" type="curve"/>
      <point x="466" y="359"/>
      <point x="530" y="313"/>
      <point x="530" y="204" type="curve" smooth="yes"/>
      <point x="530" y="64"/>
      <point x="450" y="0"/>
      <point x="318" y="0" type="curve" smooth="yes"/>
    </contour>
    <contour>
      <point x="177" y="409" type="line"/>
      <point x="313" y="409" type="line" smooth="yes"/>
      <point x="394" y="409"/>
      <point x="426" y="459"/>
      <point x="426" y="522" type="curve" smooth="yes"/>
      <point x="426" y="590"/>
      <point x="390" y="630"/>
      <point x="318" y="630" type="curve" smooth="yes"/>
      <point x="177" y="630" type="line"/>
    </contour>
    <contour>
      <point x="177" y="70" type="line"/>
      <point x="322" y="70" type="line" smooth="yes"/>
      <point x="416" y="70"/>
      <point x="453" y="117"/>
      <point x="453" y="202" type="curve" smooth="yes"/>
      <point x="453" y="291"/>
      <point x="401" y="340"/>
      <point x="316" y="340" type="curve" smooth="yes"/>
      <point x="177" y="340" type="line"/>
    </contour>
  </outline>
</glyph>
<glyph name="C" format="1">
  <advance width="600"/>
  <unicode hex="0043"/>
  <outline>
    <contour>
      <point x="318" y="-11" type="curve" smooth="yes"/>
      <point x="163" y="-11"/>
      <point x="71" y="127"/>
      <point x="71" y="350" type="curve" smooth="yes"/>
      <point x="71" y="571"/>
      <point x="168" y="711"/>
      <point x="321" y="711" type="curve" smooth="yes"/>
      <point x="413" y="711"/>
      <point x="475" y="668"/>
      <point x="521" y="584" type="curve"/>
      <point x="460" y="545" type="line"/>
      <point x="421" y="615"/>
      <point x="384" y="642"/>
      <point x="319" y="642" type="curve" smooth="yes"/>
      <point x="216" y="642"/>
      <point x="149" y="548"/>
      <point x="149" y="350" type="curve" smooth="yes"/>
      <point x="149" y="153"/>
      <point x="218" y="58"/>
      <point x="321" y="58" type="curve" smooth="yes"/>
      <point x="390" y="58"/>
      <point x="428" y="92"/>
      <point x="468" y="158" type="curve"/>
      <point x="524" y="118" type="line"/>
      <point x="480" y="43"/>
      <point x="416" y="-11"/>
    </contour>
  </outline>
</glyph>
<glyph name="D" format="1">
  <advance width="600"/>
  <unicode hex="0044"/>
  <outline>
    <contour>
      <point x="99" y="0" type="line"/>
      <point x="99" y="700" type="line"/>
      <point x="261" y="700" type="line" smooth="yes"/>
      <point x="425" y="700"/>
      <point x="528" y="587"/>
      <point x="528" y="355" type="curve" smooth="yes"/>
      <point x="528" y="106"/>
      <point x="416" y="0"/>
      <point x="248" y="0" type="curve" smooth="yes"/>
    </contour>
    <contour>
      <point x="176" y="70" type="line"/>
      <point x="257" y="70" type="line" smooth="yes"/>
      <point x="378" y="70"/>
      <point x="450" y="147"/>
      <point x="450" y="352" type="curve" smooth="yes"/>
      <point x="450" y="537"/>
      <point x="385" y="630"/>
      <point x="256" y="630" type="curve" smooth="yes"/>
      <point x="176" y="630" type="line"/>
    </contour>
  </outline>
</glyph>
<glyph name="E" format="1">
  <advance width="600"/>
  <unicode hex="0045"/>
  <outline>
    <contour>
      <point x="108" y="0" type="line"/>
      <point x="108" y="700" type="line"/>
      <point x="511" y="700" type="line"/>
      <point x="511" y="630" type="line"/>
      <point x="185" y="630" type="line"/>
      <point x="185" y="408" type="line"/>
      <point x="381" y="408" type="line"/>
      <point x="381" y="338" type="line"/>
      <point x="185" y="338" type="line"/>
      <point x="185" y="70" type="line"/>
      <point x="526" y="70" type="line"/>
      <point x="526" y="0" type="line"/>
    </contour>
  </outline>
</glyph>
<glyph name="F" format="1">
  <advance width="600"/>
  <unicode hex="0046"/>
  <outline>
    <contour>
      <point x="114" y="0" type="line"/>
      <point x="114" y="700" type="line"/>
      <point x="534" y="700" type="line"/>
      <point x="534" y="630" type="line"/>
      <point x="191" y="630" type="line"/>
      <point x="191" y="396" type="line"/>
      <point x="393" y="396" type="line"/>
      <point x="393" y="326" type="line"/>
      <point x="191" y="326" type="line"/>
      <point x="191" y="0" type="line"/>
    </contour>
  </outline>
</glyph>
<glyph name="G" format="1">
  <advance width="600"/>
  <unicode hex="0047"/>
  <outline>
    <contour>
      <point x="312" y="-11" type="curve" smooth="yes"/>
      <point x="163" y="-11"/>
      <point x="71" y="134"/>
      <point x="71" y="350" type="curve" smooth="yes"/>
      <point x="71" y="565"/>
      <point x="165" y="711"/>
      <point x="313" y="711" type="curve" smooth="yes"/>
      <point x="407" y="711"/>
      <point x="466" y="661"/>
      <point x="506" y="580" type="curve"/>
      <point x="441" y="542" type="line"/>
      <point x="407" y="614"/>
      <point x="372" y="641"/>
      <point x="311" y="641" type="curve" smooth="yes"/>
      <point x="212" y="641"/>
      <point x="149" y="533"/>
      <point x="149" y="350" type="curve" smooth="yes"/>
      <point x="149" y="167"/>
      <point x="213" y="59"/>
      <point x="313" y="59" type="curve" smooth="yes"/>
      <point x="408" y="59"/>
      <point x="453" y="123"/>
      <point x="453" y="252" type="curve" smooth="yes"/>
      <point x="453" y="283" type="line"/>
      <point x="348" y="283" type="line"/>
      <point x="348" y="353" type="line"/>
      <point x="529" y="353" type="line"/>
      <point x="529" y="259" type="line" smooth="yes"/>
      <point x="529" y="87"/>
      <point x="448" y="-11"/>
    </contour>
  </outline>
</glyph>
<glyph name="H" format="1">
  <advance width="600"/>
  <unicode hex="0048"/>
  <outline>
    <contour>
      <point x="92" y="0" type="line"/>
      <point x="92" y="700" type="line"/>
      <point x="169" y="700" type="line"/>
      <point x="169" y="404" type="line"/>
      <point x="431" y="404" type="line"/>
      <point x="431" y="700" type="line"/>
      <point x="508" y="700" type="line"/>
      <point x="508" y="0" type="line"/>
      <point x="431" y="0" type="line"/>
      <point x="431" y="334" type="line"/>
      <point x="169" y="334" type="line"/>
      <point x="169" y="0" type="line"/>
    </contour>
  </outline>
</glyph>
<glyph name="I" format="1">
  <advance width="600"/>
  <unicode hex="0049"/>
  <outline>
    <contour>
      <point x="151" y="0" type="line"/>
      <point x="151" y="63" type="line"/>
      <point x="261" y="63" type="line"/>
      <point x="261" y="637" type="line"/>
      <point x="151" y="637" type="line"/>
      <point x="151" y="700" type="line"/>
      <point x="448" y="700" type="line"/>
      <point x="448" y="637" type="line"/>
      <point x="338" y="637" type="line"/>
      <point x="338" y="63" type="line"/>
      <point x="448" y="63" type="line"/>
      <point x="448" y="0" type="line"/>
    </contour>
  </outline>
</glyph>
<glyph name="J" format="1">
  <advance width="600"/>
  <unicode hex="004A"/>
  <outline>
    <contour>
      <point x="265" y="-11" type="curve" smooth="yes"/>
      <point x="149" y="-11"/>
      <point x="86" y="50"/>
      <point x="50" y="158" type="curve"/>
      <point x="123" y="183" type="line"/>
      <point x="149" y="105"/>
      <point x="188" y="59"/>
      <point x="268" y="59" type="curve" smooth="yes"/>
      <point x="374" y="59"/>
      <point x="418" y="121"/>
      <point x="418" y="263" type="curve" smooth="yes"/>
      <point x="418" y="700" type="line"/>
      <point x="495" y="700" type="line"/>
      <point x="495" y="260" type="line" smooth="yes"/>
      <point x="495" y="79"/>
      <point x="419" y="-11"/>
    </contour>
  </outline>
</glyph>
<glyph name="K" format="1">
  <advance width="600"/>
  <unicode hex="004B"/>
  <outline>
    <contour>
      <point x="100" y="0" type="line"/>
      <point x="100" y="700" type="line"/>
      <point x="177" y="700" type="line"/>
      <point x="177" y="428" type="line" smooth="yes"/>
      <point x="177" y="388"/>
      <point x="176" y="347"/>
      <point x="176" y="329" type="curve"/>
      <point x="196" y="361"/>
      <point x="229" y="412"/>
      <point x="265" y="462" type="curve" smooth="yes"/>
      <point x="436" y="700" type="line"/>
      <point x="519" y="700" type="line"/>
      <point x="331" y="437" type="line"/>
      <point x="547" y="0" type="line"/>
      <point x="461" y="0" type="line"/>
      <point x="280" y="369" type="line"/>
      <point x="177" y="223" type="line"/>
      <point x="177" y="0" type="line"/>
    </contour>
  </outline>
</glyph>
<glyph name="L" format="1">
  <advance width="600"/>
  <unicode hex="004C"/>
  <outline>
    <contour>
      <point x="110" y="0" type="line"/>
      <point x="110" y="700" type="line"/>
      <point x="187" y="700" type="line"/>
      <point x="187" y="70" type="line"/>
      <point x="523" y="70" type="line"/>
      <point x="523" y="0" type="line"/>
    </contour>
  </outline>
</glyph>
<glyph name="M" format="1">
  <advance width="600"/>
  <unicode hex="004D"/>
  <outline>
    <contour>
      <point x="300" y="-8" type="line"/>
      <point x="184" y="397" type="line" smooth="yes"/>
      <point x="167" y="456"/>
      <point x="158" y="495"/>
      <point x="150" y="539" type="curve"/>
      <point x="151" y="506"/>
      <point x="151" y="451"/>
      <point x="151" y="405" type="curve" smooth="yes"/>
      <point x="151" y="0" type="line"/>
      <point x="82" y="0" type="line"/>
      <point x="82" y="700" type="line"/>
      <point x="164" y="700" type="line"/>
      <point x="265" y="343" type="line" smooth="yes"/>
      <point x="284" y="275"/>
      <point x="293" y="236"/>
      <point x="301" y="186" type="curve"/>
      <point x="310" y="236"/>
      <point x="319" y="276"/>
      <point x="338" y="343" type="curve" smooth="yes"/>
      <point x="437" y="700" type="line"/>
      <point x="518" y="700" type="line"/>
      <point x="518" y="0" type="line"/>
      <point x="449" y="0" type="line"/>
      <point x="449" y="405" type="line" smooth="yes"/>
      <point x="449" y="448"/>
      <point x="449" y="506"/>
      <point x="450" y="539" type="curve"/>
      <point x="442" y="496"/>
      <point x="433" y="460"/>
      <point x="415" y="397" type="curve" smooth="yes"/>
    </contour>
  </outline>
</glyph>
<glyph name="N" format="1">
  <advance width="600"/>
  <unicode hex="004E"/>
  <outline>
    <contour>
      <point x="95" y="0" type="line"/>
      <point x="95" y="700" type="line"/>
      <point x="167" y="700" type="line"/>
      <point x="370" y="291" type="line" smooth="yes"/>
      <point x="396" y="239"/>
      <point x="422" y="175"/>
      <point x="436" y="141" type="curve"/>
      <point x="435" y="161"/>
      <point x="435" y="220"/>
      <point x="435" y="255" type="curve" smooth="yes"/>
      <point x="435" y="700" type="line"/>
      <point x="505" y="700" type="line"/>
      <point x="505" y="0" type="line"/>
      <point x="440" y="0" type="line"/>
      <point x="230" y="419" type="line" smooth="yes"/>
      <point x="205" y="468"/>
      <point x="179" y="531"/>
      <point x="164" y="568" type="curve"/>
      <point x="165" y="550"/>
      <point x="165" y="486"/>
      <point x="165" y="455" type="curve" smooth="yes"/>
      <point x="165" y="0" type="line"/>
    </contour>
  </outline>
</glyph>
<glyph name="O" format="1">
  <advance width="600"/>
  <unicode hex="004F"/>
  <outline>
    <contour>
      <point x="299" y="-11" type="curve" smooth="yes"/>
      <point x="155" y="-11"/>
      <point x="71" y="127"/>
      <point x="71" y="350" type="curve" smooth="yes"/>
      <point x="71" y="571"/>
      <point x="156" y="711"/>
      <point x="300" y="711" type="curve" smooth="yes"/>
      <point x="444" y="711"/>
      <point x="529" y="573"/>
      <point x="529" y="350" type="curve" smooth="yes"/>
      <point x="529" y="129"/>
      <point x="443" y="-11"/>
    </contour>
    <contour>
      <point x="301" y="59" type="curve" smooth="yes"/>
      <point x="397" y="59"/>
      <point x="451" y="152"/>
      <point x="451" y="350" type="curve" smooth="yes"/>
      <point x="451" y="547"/>
      <point x="394" y="641"/>
      <point x="298" y="641" type="curve" smooth="yes"/>
      <point x="202" y="641"/>
      <point x="149" y="548"/>
      <point x="149" y="350" type="curve" smooth="yes"/>
      <point x="149" y="153"/>
      <point x="206" y="59"/>
    </contour>
  </outline>
</glyph>
<glyph name="P" format="1">
  <advance width="600"/>
  <unicode hex="0050"/>
  <outline>
    <contour>
      <point x="103" y="0" type="line"/>
      <point x="103" y="700" type="line"/>
      <point x="331" y="700" type="line" smooth="yes"/>
      <point x="449" y="700"/>
      <point x="539" y="635"/>
      <point x="539" y="496" type="curve" smooth="yes"/>
      <point x="539" y="357"/>
      <point x="446" y="284"/>
      <point x="318" y="284" type="curve" smooth="yes"/>
      <point x="180" y="284" type="line"/>
      <point x="180" y="0" type="line"/>
    </contour>
    <contour>
      <point x="180" y="354" type="line"/>
      <point x="320" y="354" type="line" smooth="yes"/>
      <point x="416" y="354"/>
      <point x="461" y="399"/>
      <point x="461" y="493" type="curve" smooth="yes"/>
      <point x="461" y="584"/>
      <point x="416" y="630"/>
      <point x="328" y="630" type="curve" smooth="yes"/>
      <point x="180" y="630" type="line"/>
    </contour>
  </outline>
</glyph>
<glyph name="Q" format="1">
  <advance width="600"/>
  <unicode hex="0051"/>
  <outline>
    <contour>
      <point x="457" y="-72" type="line"/>
      <point x="394" y="13" type="line"/>
      <point x="366" y="-3"/>
      <point x="334" y="-11"/>
      <point x="299" y="-11" type="curve" smooth="yes"/>
      <point x="155" y="-11"/>
      <point x="71" y="127"/>
      <point x="71" y="350" type="curve" smooth="yes"/>
      <point x="71" y="571"/>
      <point x="156" y="711"/>
      <point x="300" y="711" type="curve" smooth="yes"/>
      <point x="444" y="711"/>
      <point x="529" y="573"/>
      <point x="529" y="350" type="curve" smooth="yes"/>
      <point x="529" y="220"/>
      <point x="499" y="118"/>
      <point x="445" y="56" type="curve"/>
      <point x="510" y="-31" type="line"/>
    </contour>
    <contour>
      <point x="301" y="57" type="curve" smooth="yes"/>
      <point x="320" y="57"/>
      <point x="337" y="61"/>
      <point x="353" y="68" type="curve"/>
      <point x="279" y="168" type="line"/>
      <point x="332" y="209" type="line"/>
      <point x="403" y="113" type="line"/>
      <point x="434" y="159"/>
      <point x="451" y="239"/>
      <point x="451" y="350" type="curve" smooth="yes"/>
      <point x="451" y="547"/>
      <point x="394" y="641"/>
      <point x="298" y="641" type="curve" smooth="yes"/>
      <point x="202" y="641"/>
      <point x="149" y="548"/>
      <point x="149" y="350" type="curve" smooth="yes"/>
      <point x="149" y="153"/>
      <point x="207" y="57"/>
    </contour>
  </outline>
</glyph>
<glyph name="R" format="1">
  <advance width="600"/>
  <unicode hex="0052"/>
  <outline>
    <contour>
      <point x="99" y="0" type="line"/>
      <point x="99" y="700" type="line"/>
      <point x="325" y="700" type="line" smooth="yes"/>
      <point x="438" y="700"/>
      <point x="524" y="638"/>
      <point x="524" y="507" type="curve" smooth="yes"/>
      <point x="524" y="407"/>
      <point x="470" y="343"/>
      <point x="387" y="319" type="curve"/>
      <point x="520" y="0" type="line"/>
      <point x="436" y="0" type="line"/>
      <point x="308" y="307" type="line"/>
      <point x="176" y="307" type="line"/>
      <point x="176" y="0" type="line"/>
    </contour>
    <contour>
      <point x="176" y="376" type="line"/>
      <point x="315" y="376" type="line" smooth="yes"/>
      <point x="404" y="376"/>
      <point x="447" y="418"/>
      <point x="447" y="504" type="curve" smooth="yes"/>
      <point x="447" y="588"/>
      <point x="404" y="630"/>
      <point x="322" y="630" type="curve" smooth="yes"/>
      <point x="176" y="630" type="line"/>
    </contour>
  </outline>
</glyph>
<glyph name="S" format="1">
  <advance width="600"/>
  <unicode hex="0053"/>
  <outline>
    <contour>
      <point x="294" y="-11" type="curve" smooth="yes"/>
      <point x="201" y="-11"/>
      <point x="122" y="32"/>
      <point x="72" y="94" type="curve"/>
      <point x="125" y="146" type="line"/>
      <point x="173" y="91"/>
      <point x="229" y="59"/>
      <point x="297" y="59" type="curve" smooth="yes"/>
      <point x="384" y="59"/>
      <point x="436" y="103"/>
      <point x="436" y="174" type="curve" smooth="yes"/>
      <point x="436" y="240"/>
      <point x="405" y="280"/>
      <point x="280" y="331" type="curve" smooth="yes"/>
      <point x="144" y="387"/>
      <point x="91" y="437"/>
      <point x="91" y="537" type="curve" smooth="yes"/>
      <point x="91" y="644"/>
      <point x="174" y="711"/>
      <point x="297" y="711" type="curve" smooth="yes"/>
      <point x="390" y="711"/>
      <point x="446" y="680"/>
      <point x="500" y="628" type="curve"/>
      <point x="447" y="571" type="line"/>
      <point x="401" y="616"/>
      <point x="359" y="641"/>
      <point x="293" y="641" type="curve" smooth="yes"/>
      <point x="205" y="641"/>
      <point x="168" y="596"/>
      <point x="168" y="541" type="curve" smooth="yes"/>
      <point x="168" y="479"/>
      <point x="192" y="448"/>
      <point x="322" y="395" type="curve" smooth="yes"/>
      <point x="463" y="338"/>
      <point x="514" y="282"/>
      <point x="514" y="179" type="curve" smooth="yes"/>
      <point x="514" y="71"/>
      <point x="432" y="-11"/>
    </contour>
  </outline>
</glyph>
<glyph name="T" format="1">
  <advance width="600"/>
  <unicode hex="0054"/>
  <outline>
    <contour>
      <point x="262" y="0" type="line"/>
      <point x="262" y="630" type="line"/>
      <point x="66" y="630" type="line"/>
      <point x="66" y="700" type="line"/>
      <point x="534" y="700" type="line"/>
      <point x="534" y="630" type="line"/>
      <point x="339" y="630" type="line"/>
      <point x="339" y="0" type="line"/>
    </contour>
  </outline>
</glyph>
<glyph name="U" format="1">
  <advance width="600"/>
  <unicode hex="0055"/>
  <outline>
    <contour>
      <point x="300" y="-11" type="curve" smooth="yes"/>
      <point x="167" y="-11"/>
      <point x="92" y="76"/>
      <point x="92" y="235" type="curve" smooth="yes"/>
      <point x="92" y="700" type="line"/>
      <point x="169" y="700" type="line"/>
      <point x="169" y="238" type="line" smooth="yes"/>
      <point x="169" y="120"/>
      <point x="213" y="59"/>
      <point x="303" y="59" type="curve" smooth="yes"/>
      <point x="393" y="59"/>
      <point x="431" y="118"/>
      <point x="431" y="236" type="curve" smooth="yes"/>
      <point x="431" y="700" type="line"/>
      <point x="508" y="700" type="line"/>
      <point x="508" y="236" type="line" smooth="yes"/>
      <point x="508" y="77"/>
      <point x="434" y="-11"/>
    </contour>
  </outline>
</glyph>
<glyph name="V" format="1">
  <advance width="600"/>
  <unicode hex="0056"/>
  <outline>
    <contour>
      <point x="262" y="0" type="line"/>
      <point x="65" y="700" type="line"/>
      <point x="144" y="700" type="line"/>
      <point x="265" y="249" type="line" smooth="yes"/>
      <point x="279" y="196"/>
      <point x="295" y="124"/>
      <point x="302" y="84" type="curve"/>
      <point x="309" y="124"/>
      <point x="323" y="196"/>
      <point x="338" y="250" type="curve" smooth="yes"/>
      <point x="459" y="700" type="line"/>
      <point x="535" y="700" type="line"/>
      <point x="338" y="0" type="line"/>
    </contour>
  </outline>
</glyph>
<glyph name="W" format="1">
  <advance width="600"/>
  <unicode hex="0057"/>
  <outline>
    <contour>
      <point x="139" y="0" type="line"/>
      <point x="35" y="700" type="line"/>
      <point x="109" y="700" type="line"/>
      <point x="163" y="303" type="line" smooth="yes"/>
      <point x="170" y="249"/>
      <point x="179" y="166"/>
      <point x="181" y="125" type="curve"/>
      <point x="185" y="166"/>
      <point x="194" y="250"/>
      <point x="203" y="304" type="curve" smooth="yes"/>
      <point x="268" y="700" type="line"/>
      <point x="333" y="700" type="line"/>
      <point x="399" y="304" type="line" smooth="yes"/>
      <point x="408" y="248"/>
      <point x="417" y="166"/>
      <point x="421" y="125" type="curve"/>
      <point x="424" y="166"/>
      <point x="430" y="250"/>
      <point x="437" y="303" type="curve" smooth="yes"/>
      <point x="491" y="700" type="line"/>
      <point x="566" y="700" type="line"/>
      <point x="461" y="0" type="line"/>
      <point x="390" y="0" type="line"/>
      <point x="334" y="322" type="line" smooth="yes"/>
      <point x="320" y="401"/>
      <point x="305" y="515"/>
      <point x="299" y="583" type="curve"/>
      <point x="293" y="515"/>
      <point x="277" y="399"/>
      <point x="264" y="322" type="curve" smooth="yes"/>
      <point x="208" y="0" type="line"/>
    </contour>
  </outline>
</glyph>
<glyph name="X" format="1">
  <advance width="600"/>
  <unicode hex="0058"/>
  <outline>
    <contour>
      <point x="69" y="0" type="line"/>
      <point x="258" y="366" type="line"/>
      <point x="84" y="700" type="line"/>
      <point x="167" y="700" type="line"/>
      <point x="258" y="525" type="line" smooth="yes"/>
      <point x="281" y="481"/>
      <point x="293" y="455"/>
      <point x="304" y="431" type="curve"/>
      <point x="315" y="456"/>
      <point x="327" y="481"/>
      <point x="349" y="525" type="curve" smooth="yes"/>
      <point x="437" y="700" type="line"/>
      <point x="516" y="700" type="line"/>
      <point x="342" y="363" type="line"/>
      <point x="531" y="0" type="line"/>
      <point x="448" y="0" type="line"/>
      <point x="345" y="198" type="line" smooth="yes"/>
      <point x="322" y="243"/>
      <point x="306" y="275"/>
      <point x="296" y="298" type="curve"/>
      <point x="286" y="275"/>
      <point x="271" y="243"/>
      <point x="248" y="198" type="curve" smooth="yes"/>
      <point x="148" y="0" type="line"/>
    </contour>
  </outline>
</glyph>
<glyph name="Z" format="1">
  <advance width="600"/>
  <unicode hex="005A"/>
  <outline>
    <contour>
      <point x="78" y="0" type="line"/>
      <point x="78" y="66" type="line"/>
      <point x="378" y="544" type="line" smooth="yes"/>
      <point x="401" y="580"/>
      <point x="417" y="605"/>
      <point x="437" y="633" type="curve"/>
      <point x="373" y="633" type="line"/>
      <point x="97" y="633" type="line"/>
      <point x="97" y="700" type="line"/>
      <point x="516" y="700" type="line"/>
      <point x="516" y="634" type="line"/>
      <point x="216" y="156" type="line" smooth="yes"/>
      <point x="196" y="124"/>
      <point x="175" y="95"/>
      <point x="155" y="67" type="curve"/>
      <point x="216" y="67" type="line"/>
      <point x="516" y="67" type="line"/>
      <point x="516" y="0" type="line"/>
    </contour>
  </outline>
</glyph>
<glyph name="bracketleft" format="1">
  <advance width="600"/>
  <unicode hex="005B"/>
  <outline>
    <contour>
      <point x="208" y="-121" type="line"/>
      <point x="208" y="700" type="line"/>
      <point x="430" y="700" type="line"/>
      <point x="430" y="640" type="line"/>
      <point x="283" y="640" type="line"/>
      <point x="283" y="-61" type="line"/>
      <point x="430" y="-61" type="line"/>
      <point x="430" y="-121" type="line"/>
    </contour>
  </outline>
</glyph>
<glyph name="backslash" format="1">
  <advance width="600"/>
  <unicode hex="005C"/>
  <outline>
    <contour>
      <point x="456" y="-90" type="line"/>
      <point x="72" y="790" type="line"/>
      <point x="144" y="790" type="line"/>
      <point x="528" y="-90" type="line"/>
    </contour>
  </outline>
</glyph>
<glyph name="bracketright" format="1">
  <advance width="600"/>
  <unicode hex="005D"/>
  <outline>
    <contour>
      <point x="170" y="-121" type="line"/>
      <point x="170" y="-61" type="line"/>
      <point x="317" y="-61" type="line"/>
      <point x="317" y="640" type="line"/>
      <point x="170" y="640" type="line"/>
      <point x="170" y="700" type="line"/>
      <point x="392" y="700" type="line"/>
      <point x="392" y="-121" type="line"/>
    </contour>
  </outline>
</glyph>
<glyph name="asciicircum" format="1">
  <advance width="600"/>
  <unicode hex="005E"/>
  <outline>
    <contour>
      <point x="68" y="382" type="line"/>
      <point x="272" y="700" type="line"/>
      <point x="328" y="700" type="line"/>
      <point x="532" y="382" type="line"/>
      <point x="446" y="382" type="line"/>
      <point x="299" y="618" type="line"/>
      <point x="152" y="382" type="line"/>
    </contour>
  </outline>
</glyph>
<glyph name="underscore" format="1">
  <advance width="600"/>
  <unicode hex="005F"/>
  <outline>
    <contour>
      <point x="0" y="-153" type="line"/>
      <point x="0" y="-88" type="line"/>
      <point x="600" y="-88" type="line"/>
      <point x="600" y="-153" type="line"/>
    </contour>
  </outline>
</glyph>
<glyph name="grave" format="1">
  <advance width="600"/>
  <unicode hex="0060"/>
  <outline>
    <contour>
      <point x="277" y="595" type="line"/>
      <point x="126" y="755" type="line"/>
      <point x="233" y="755" type="line"/>
      <point x="336" y="595" type="line"/>
    </contour>
  </outline>
</glyph>
<glyph name="a" format="1">
  <advance width="600"/>
  <unicode hex="0061"/>
  <outline>
    <contour>
      <point x="251" y="-11" type="curve" smooth="yes"/>
      <point x="169" y="-11"/>
      <point x="83" y="30"/>
      <point x="83" y="156" type="curve" smooth="yes"/>
      <point x="83" y="275"/>
      <point x="180" y="325"/>
      <point x="284" y="325" type="curve" smooth="yes"/>
      <point x="337" y="325"/>
      <point x="384" y="312"/>
      <point x="415" y="295" type="curve"/>
      <point x="415" y="357" type="line" smooth="yes"/>
      <point x="415" y="435"/>
      <point x="378" y="473"/>
      <point x="301" y="473" type="curve" smooth="yes"/>
      <point x="246" y="473"/>
      <point x="201" y="458"/>
      <point x="158" y="433" type="curve"/>
      <point x="130" y="494" type="line"/>
      <point x="176" y="519"/>
      <point x="238" y="536"/>
      <point x="306" y="536" type="curve" smooth="yes"/>
      <point x="419" y="536"/>
      <point x="490" y="488"/>
      <point x="490" y="366" type="curve" smooth="yes"/>
      <point x="490" y="0" type="line"/>
      <point x="415" y="0" type="line"/>
      <point x="415" y="64" type="line"/>
      <point x="378" y="24"/>
      <point x="326" y="-11"/>
    </contour>
    <contour>
      <point x="264" y="50" type="curve" smooth="yes"/>
      <point x="332" y="50"/>
      <point x="383" y="85"/>
      <point x="415" y="129" type="curve"/>
      <point x="415" y="236" type="line"/>
      <point x="381" y="255"/>
      <point x="344" y="266"/>
      <point x="280" y="266" type="curve" smooth="yes"/>
      <point x="203" y="266"/>
      <point x="157" y="228"/>
      <point x="157" y="161" type="curve" smooth="yes"/>
      <point x="157" y="84"/>
      <point x="200" y="50"/>
    </contour>
  </outline>
</glyph>
<glyph name="c" format="1">
  <advance width="600"/>
  <unicode hex="0063"/>
  <outline>
    <contour>
      <point x="331" y="-11" type="curve" smooth="yes"/>
      <point x="207" y="-11"/>
      <point x="93" y="73"/>
      <point x="93" y="261" type="curve" smooth="yes"/>
      <point x="93" y="459"/>
      <point x="221" y="536"/>
      <point x="337" y="536" type="curve" smooth="yes"/>
      <point x="416" y="536"/>
      <point x="469" y="511"/>
      <point x="514" y="470" type="curve"/>
      <point x="470" y="414" type="line"/>
      <point x="431" y="449"/>
      <point x="396" y="470"/>
      <point x="331" y="470" type="curve" smooth="yes"/>
      <point x="230" y="470"/>
      <point x="169" y="392"/>
      <point x="169" y="268" type="curve" smooth="yes"/>
      <point x="169" y="138"/>
      <point x="220" y="55"/>
      <point x="334" y="55" type="curve" smooth="yes"/>
      <point x="393" y="55"/>
      <point x="437" y="83"/>
      <point x="472" y="121" type="curve"/>
      <point x="516" y="71" type="line"/>
      <point x="476" y="26"/>
      <point x="418" y="-11"/>
    </contour>
  </outline>
</glyph>
<glyph name="e" format="1">
  <advance width="600"/>
  <unicode hex="0065"/>
  <outline>
    <contour>
      <point x="298" y="-11" type="curve" smooth="yes"/>
      <point x="201" y="-11"/>
      <point x="77" y="56"/>
      <point x="77" y="266" type="curve" smooth="yes"/>
      <point x="77" y="431"/>
      <point x="173" y="536"/>
      <point x="302" y="536" type="curve" smooth="yes"/>
      <point x="444" y="536"/>
      <point x="521" y="427"/>
      <point x="521" y="280" type="curve" smooth="yes"/>
      <point x="521" y="261"/>
      <point x="520" y="249"/>
      <point x="519" y="237" type="curve"/>
      <point x="154" y="237" type="line"/>
      <point x="161" y="125"/>
      <point x="217" y="54"/>
      <point x="306" y="54" type="curve" smooth="yes"/>
      <point x="371" y="54"/>
      <point x="408" y="74"/>
      <point x="458" y="104" type="curve"/>
      <point x="492" y="47" type="line"/>
      <point x="426" y="9"/>
      <point x="380" y="-11"/>
    </contour>
    <contour>
      <point x="154" y="298" type="curve"/>
      <point x="449" y="298" type="line"/>
      <point x="442" y="404"/>
      <point x="398" y="471"/>
      <point x="301" y="471" type="curve" smooth="yes"/>
      <point x="219" y="471"/>
      <point x="163" y="414"/>
    </contour>
  </outline>
</glyph>
<glyph name="f" format="1">
  <advance width="600"/>
  <unicode hex="0066"/>
  <outline>
    <contour>
      <point x="234" y="0" type="line"/>
      <point x="234" y="458" type="line"/>
      <point x="133" y="458" type="line"/>
      <point x="133" y="525" type="line"/>
      <point x="234" y="525" type="line"/>
      <point x="234" y="569" type="line" smooth="yes"/>
      <point x="234" y="691"/>
      <point x="308" y="726"/>
      <point x="384" y="726" type="curve" smooth="yes"/>
      <point x="431" y="726"/>
      <point x="464" y="713"/>
      <point x="484" y="704" type="curve"/>
      <point x="484" y="632" type="line"/>
      <point x="464" y="643"/>
      <point x="432" y="656"/>
      <point x="392" y="656" type="curve" smooth="yes"/>
      <point x="348" y="656"/>
      <point x="309" y="641"/>
      <point x="309" y="575" type="curve" smooth="yes"/>
      <point x="309" y="525" type="line"/>
      <point x="461" y="525" type="line"/>
      <point x="461" y="458" type="line"/>
      <point x="309" y="458" type="line"/>
      <point x="309" y="0" type="line"/>
    </contour>
  </outline>
</glyph>
<glyph name="i" format="1">
  <advance width="600"/>
  <unicode hex="0069"/>
  <outline>
    <contour>
      <point x="261" y="624" type="curve" smooth="yes"/>
      <point x="230" y="624"/>
      <point x="206" y="649"/>
      <point x="206" y="678" type="curve" smooth="yes"/>
      <point x="206" y="709"/>
      <point x="230" y="732"/>
      <point x="261" y="732" type="curve" smooth="yes"/>
      <point x="292" y="732"/>
      <point x="316" y="709"/>
      <point x="316" y="678" type="curve" smooth="yes"/>
      <point x="316" y="649"/>
      <point x="292" y="624"/>
    </contour>
    <contour>
      <point x="357" y="-11" type="curve" smooth="yes"/>
      <point x="281" y="-11"/>
      <point x="220" y="27"/>
      <point x="220" y="121" type="curve" smooth="yes"/>
      <point x="220" y="525" type="line"/>
      <point x="295" y="525" type="line"/>
      <point x="295" y="134" type="line" smooth="yes"/>
      <point x="295" y="81"/>
      <point x="320" y="58"/>
      <point x="370" y="58" type="curve" smooth="yes"/>
      <point x="418" y="58"/>
      <point x="453" y="71"/>
      <point x="475" y="80" type="curve"/>
      <point x="465" y="10" type="line"/>
      <point x="450" y="3"/>
      <point x="403" y="-11"/>
    </contour>
  </outline>
</glyph>
<glyph name="j" format="1">
  <advance width="600"/>
  <unicode hex="006A"/>
  <outline>
    <contour>
      <point x="297" y="624" type="curve" smooth="yes"/>
      <point x="266" y="624"/>
      <point x="242" y="649"/>
      <point x="242" y="678" type="curve" smooth="yes"/>
      <point x="242" y="709"/>
      <point x="266" y="732"/>
      <point x="297" y="732" type="curve" smooth="yes"/>
      <point x="328" y="732"/>
      <point x="352" y="709"/>
      <point x="352" y="678" type="curve" smooth="yes"/>
      <point x="352" y="649"/>
      <point x="328" y="624"/>
    </contour>
    <contour>
      <point x="171" y="-192" type="curve"/>
      <point x="138" y="-134" type="line"/>
      <point x="251" y="-102"/>
      <point x="261" y="-81"/>
      <point x="261" y="18" type="curve" smooth="yes"/>
      <point x="261" y="525" type="line"/>
      <point x="336" y="525" type="line"/>
      <point x="336" y="14" type="line" smooth="yes"/>
      <point x="336" y="-101"/>
      <point x="326" y="-158"/>
    </contour>
  </outline>
</glyph>
<glyph name="k" format="1">
  <advance width="600"/>
  <unicode hex="006B"/>
  <outline>
    <contour>
      <point x="109" y="0" type="line"/>
      <point x="109" y="687" type="line"/>
      <point x="184" y="729" type="line"/>
      <point x="184" y="294" type="line" smooth="yes"/>
      <point x="184" y="272"/>
      <point x="183" y="236"/>
      <point x="183" y="236" type="curve"/>
      <point x="183" y="236"/>
      <point x="202" y="262"/>
      <point x="215" y="279" type="curve" smooth="yes"/>
      <point x="411" y="525" type="line"/>
      <point x="498" y="525" type="line"/>
      <point x="340" y="334" type="line"/>
      <point x="527" y="0" type="line"/>
      <point x="447" y="0" type="line"/>
      <point x="293" y="276" type="line"/>
      <point x="184" y="145" type="line"/>
      <point x="184" y="0" type="line"/>
    </contour>
  </outline>
</glyph>
<glyph name="l" format="1">
  <advance width="600"/>
  <unicode hex="006C"/>
  <outline>
    <contour>
      <point x="362" y="-11" type="curve" smooth="yes"/>
      <point x="286" y="-11"/>
      <point x="225" y="27"/>
      <point x="225" y="121" type="curve" smooth="yes"/>
      <point x="225" y="687" type="line"/>
      <point x="300" y="729" type="line"/>
      <point x="300" y="134" type="line" smooth="yes"/>
      <point x="300" y="81"/>
      <point x="325" y="58"/>
      <point x="375" y="58" type="curve" smooth="yes"/>
      <point x="423" y="58"/>
      <point x="458" y="71"/>
      <point x="480" y="80" type="curve"/>
      <point x="470" y="10" type="line"/>
      <point x="455" y="3"/>
      <point x="408" y="-11"/>
    </contour>
  </outline>
</glyph>
<glyph name="m" format="1">
  <advance width="600"/>
  <unicode hex="006D"/>
  <outline>
    <contour>
      <point x="62" y="0" type="line"/>
      <point x="62" y="525" type="line"/>
      <point x="133" y="525" type="line"/>
      <point x="133" y="483" type="line"/>
      <point x="155" y="517"/>
      <point x="180" y="536"/>
      <point x="222" y="536" type="curve" smooth="yes"/>
      <point x="269" y="536"/>
      <point x="295" y="512"/>
      <point x="314" y="477" type="curve"/>
      <point x="341" y="513"/>
      <point x="375" y="536"/>
      <point x="427" y="536" type="curve" smooth="yes"/>
      <point x="504" y="536"/>
      <point x="541" y="480"/>
      <point x="541" y="374" type="curve" smooth="yes"/>
      <point x="541" y="0" type="line"/>
      <point x="470" y="0" type="line"/>
      <point x="470" y="368" type="line" smooth="yes"/>
      <point x="470" y="445"/>
      <point x="450" y="474"/>
      <point x="408" y="474" type="curve" smooth="yes"/>
      <point x="370" y="474"/>
      <point x="337" y="444"/>
      <point x="337" y="370" type="curve" smooth="yes"/>
      <point x="337" y="0" type="line"/>
      <point x="266" y="0" type="line"/>
      <point x="266" y="368" type="line" smooth="yes"/>
      <point x="266" y="445"/>
      <point x="246" y="474"/>
      <point x="204" y="474" type="curve" smooth="yes"/>
      <point x="166" y="474"/>
      <point x="133" y="444"/>
      <point x="133" y="370" type="curve" smooth="yes"/>
      <point x="133" y="0" type="line"/>
    </contour>
  </outline>
</glyph>
<glyph name="n" format="1">
  <advance width="600"/>
  <unicode hex="006E"/>
  <outline>
    <contour>
      <point x="102" y="0" type="line"/>
      <point x="102" y="525" type="line"/>
      <point x="177" y="525" type="line"/>
      <point x="177" y="460" type="line"/>
      <point x="206" y="504"/>
      <point x="255" y="536"/>
      <point x="320" y="536" type="curve" smooth="yes"/>
      <point x="429" y="536"/>
      <point x="501" y="471"/>
      <point x="501" y="322" type="curve" smooth="yes"/>
      <point x="501" y="0" type="line"/>
      <point x="426" y="0" type="line"/>
      <point x="426" y="310" type="line" smooth="yes"/>
      <point x="426" y="421"/>
      <point x="388" y="471"/>
      <point x="309" y="471" type="curve" smooth="yes"/>
      <point x="234" y="471"/>
      <point x="177" y="423"/>
      <point x="177" y="313" type="curve" smooth="yes"/>
      <point x="177" y="0" type="line"/>
    </contour>
  </outline>
</glyph>
<glyph name="o" format="1">
  <advance width="600"/>
  <unicode hex="006F"/>
  <outline>
    <contour>
      <point x="298" y="-11" type="curve" smooth="yes"/>
      <point x="171" y="-11"/>
      <point x="73" y="85"/>
      <point x="73" y="263" type="curve" smooth="yes"/>
      <point x="73" y="441"/>
      <point x="175" y="536"/>
      <point x="302" y="536" type="curve" smooth="yes"/>
      <point x="429" y="536"/>
      <point x="527" y="444"/>
      <point x="527" y="266" type="curve" smooth="yes"/>
      <point x="527" y="88"/>
      <point x="425" y="-11"/>
    </contour>
    <contour>
      <point x="300" y="54" type="curve" smooth="yes"/>
      <point x="390" y="54"/>
      <point x="451" y="126"/>
      <point x="451" y="264" type="curve" smooth="yes"/>
      <point x="451" y="402"/>
      <point x="390" y="471"/>
      <point x="300" y="471" type="curve" smooth="yes"/>
      <point x="210" y="471"/>
      <point x="149" y="402"/>
      <point x="149" y="264" type="curve" smooth="yes"/>
      <point x="149" y="126"/>
      <point x="210" y="54"/>
    </contour>
  </outline>
</glyph>
<glyph name="q" format="1">
  <advance width="600"/>
  <unicode hex="0071"/>
  <outline>
    <contour>
      <point x="422" y="-193" type="line"/>
      <point x="422" y="64" type="line"/>
      <point x="385" y="24"/>
      <point x="335" y="-11"/>
      <point x="263" y="-11" type="curve" smooth="yes"/>
      <point x="163" y="-11"/>
      <point x="74" y="72"/>
      <point x="74" y="254" type="curve" smooth="yes"/>
      <point x="74" y="440"/>
      <point x="163" y="536"/>
      <point x="273" y="536" type="curve" smooth="yes"/>
      <point x="340" y="536"/>
      <point x="385" y="508"/>
      <point x="422" y="466" type="curve"/>
      <point x="422" y="525" type="line"/>
      <point x="497" y="525" type="line"/>
      <point x="497" y="-151" type="line"/>
    </contour>
    <contour>
      <point x="282" y="54" type="curve" smooth="yes"/>
      <point x="339" y="54"/>
      <point x="385" y="84"/>
      <point x="422" y="130" type="curve"/>
      <point x="422" y="392" type="line"/>
      <point x="393" y="436"/>
      <point x="342" y="471"/>
      <point x="279" y="471" type="curve" smooth="yes"/>
      <point x="192" y="471"/>
      <point x="150" y="396"/>
      <point x="150" y="255" type="curve" smooth="yes"/>
      <point x="150" y="108"/>
      <point x="199" y="54"/>
    </contour>
  </outline>
</glyph>
<glyph name="r" format="1">
  <advance width="600"/>
  <unicode hex="0072"/>
  <outline>
    <contour>
      <point x="153" y="0" type="line"/>
      <point x="153" y="525" type="line"/>
      <point x="228" y="525" type="line"/>
      <point x="228" y="435" type="line"/>
      <point x="256" y="490"/>
      <point x="325" y="536"/>
      <point x="394" y="536" type="curve" smooth="yes"/>
      <point x="444" y="536"/>
      <point x="477" y="525"/>
      <point x="500" y="511" type="curve"/>
      <point x="475" y="438" type="line"/>
      <point x="453" y="452"/>
      <point x="427" y="466"/>
      <point x="383" y="466" type="curve" smooth="yes"/>
      <point x="275" y="466"/>
      <point x="228" y="370"/>
      <point x="228" y="264" type="curve" smooth="yes"/>
      <point x="228" y="0" type="line"/>
    </contour>
  </outline>
</glyph>
<glyph name="s" format="1">
  <advance width="600"/>
  <unicode hex="0073"/>
  <outline>
    <contour>
      <point x="298" y="-11" type="curve" smooth="yes"/>
      <point x="212" y="-11"/>
      <point x="152" y="16"/>
      <point x="99" y="61" type="curve"/>
      <point x="142" y="116" type="line"/>
      <point x="185" y="76"/>
      <point x="238" y="53"/>
      <point x="300" y="53" type="curve" smooth="yes"/>
      <point x="381" y="53"/>
      <point x="421" y="84"/>
      <point x="421" y="137" type="curve" smooth="yes"/>
      <point x="421" y="188"/>
      <point x="402" y="206"/>
      <point x="287" y="234" type="curve" smooth="yes"/>
      <point x="163" y="264"/>
      <point x="118" y="316"/>
      <point x="118" y="395" type="curve" smooth="yes"/>
      <point x="118" y="480"/>
      <point x="193" y="536"/>
      <point x="297" y="536" type="curve" smooth="yes"/>
      <point x="376" y="536"/>
      <point x="439" y="511"/>
      <point x="479" y="476" type="curve"/>
      <point x="438" y="421" type="line"/>
      <point x="397" y="454"/>
      <point x="356" y="472"/>
      <point x="292" y="472" type="curve" smooth="yes"/>
      <point x="227" y="472"/>
      <point x="190" y="442"/>
      <point x="190" y="399" type="curve" smooth="yes"/>
      <point x="190" y="354"/>
      <point x="202" y="328"/>
      <point x="315" y="301" type="curve" smooth="yes"/>
      <point x="432" y="273"/>
      <point x="493" y="235"/>
      <point x="493" y="140" type="curve" smooth="yes"/>
      <point x="493" y="35"/>
      <point x="400" y="-11"/>
    </contour>
  </outline>
</glyph>
<glyph name="t" format="1">
  <advance width="600"/>
  <unicode hex="0074"/>
  <outline>
    <contour>
      <point x="334" y="-11" type="curve" smooth="yes"/>
      <point x="265" y="-11"/>
      <point x="210" y="28"/>
      <point x="210" y="122" type="curve" smooth="yes"/>
      <point x="210" y="458" type="line"/>
      <point x="104" y="458" type="line"/>
      <point x="104" y="525" type="line"/>
      <point x="210" y="525" type="line"/>
      <point x="210" y="687" type="line"/>
      <point x="285" y="729" type="line"/>
      <point x="285" y="525" type="line"/>
      <point x="457" y="525" type="line"/>
      <point x="457" y="458" type="line"/>
      <point x="285" y="458" type="line"/>
      <point x="285" y="135" type="line" smooth="yes"/>
      <point x="285" y="82"/>
      <point x="302" y="60"/>
      <point x="350" y="60" type="curve" smooth="yes"/>
      <point x="397" y="60"/>
      <point x="419" y="71"/>
      <point x="445" y="83" type="curve"/>
      <point x="434" y="8" type="line"/>
      <point x="410" y="-2"/>
      <point x="387" y="-11"/>
    </contour>
  </outline>
</glyph>
<glyph name="u" format="1">
  <advance width="600"/>
  <unicode hex="0075"/>
  <outline>
    <contour>
      <point x="280" y="-11" type="curve" smooth="yes"/>
      <point x="171" y="-11"/>
      <point x="99" y="54"/>
      <point x="99" y="203" type="curve" smooth="yes"/>
      <point x="99" y="525" type="line"/>
      <point x="174" y="525" type="line"/>
      <point x="174" y="215" type="line" smooth="yes"/>
      <point x="174" y="104"/>
      <point x="212" y="54"/>
      <point x="291" y="54" type="curve" smooth="yes"/>
      <point x="366" y="54"/>
      <point x="423" y="102"/>
      <point x="423" y="212" type="curve" smooth="yes"/>
      <point x="423" y="525" type="line"/>
      <point x="498" y="525" type="line"/>
      <point x="498" y="0" type="line"/>
      <point x="423" y="0" type="line"/>
      <point x="423" y="65" type="line"/>
      <point x="394" y="21"/>
      <point x="345" y="-11"/>
    </contour>
  </outline>
</glyph>
<glyph name="v" format="1">
  <advance width="600"/>
  <unicode hex="0076"/>
  <outline>
    <contour>
      <point x="266" y="0" type="line"/>
      <point x="63" y="525" type="line"/>
      <point x="148" y="525" type="line"/>
      <point x="296" y="107" type="line" smooth="yes"/>
      <point x="298" y="100"/>
      <point x="301" y="92"/>
      <point x="302" y="85" type="curve"/>
      <point x="304" y="92"/>
      <point x="306" y="100"/>
      <point x="308" y="107" type="curve" smooth="yes"/>
      <point x="456" y="525" type="line"/>
      <point x="537" y="525" type="line"/>
      <point x="334" y="0" type="line"/>
    </contour>
  </outline>
</glyph>
<glyph name="w" format="1">
  <advance width="600"/>
  <unicode hex="0077"/>
  <outline>
    <contour>
      <point x="139" y="0" type="line"/>
      <point x="38" y="525" type="line"/>
      <point x="112" y="525" type="line"/>
      <point x="162" y="228" type="line" smooth="yes"/>
      <point x="169" y="186"/>
      <point x="177" y="128"/>
      <point x="180" y="94" type="curve"/>
      <point x="184" y="128"/>
      <point x="192" y="187"/>
      <point x="201" y="227" type="curve" smooth="yes"/>
      <point x="266" y="525" type="line"/>
      <point x="335" y="525" type="line"/>
      <point x="400" y="227" type="line" smooth="yes"/>
      <point x="409" y="187"/>
      <point x="418" y="128"/>
      <point x="423" y="94" type="curve"/>
      <point x="426" y="128"/>
      <point x="432" y="188"/>
      <point x="439" y="228" type="curve" smooth="yes"/>
      <point x="489" y="525" type="line"/>
      <point x="562" y="525" type="line"/>
      <point x="461" y="0" type="line"/>
      <point x="391" y="0" type="line"/>
      <point x="322" y="315" type="line" smooth="yes"/>
      <point x="313" y="356"/>
      <point x="305" y="398"/>
      <point x="300" y="437" type="curve"/>
      <point x="295" y="398"/>
      <point x="287" y="356"/>
      <point x="278" y="315" type="curve" smooth="yes"/>
      <point x="208" y="0" type="line"/>
    </contour>
  </outline>
</glyph>
<glyph name="x" format="1">
  <advance width="600"/>
  <unicode hex="0078"/>
  <outline>
    <contour>
      <point x="79" y="0" type="line"/>
      <point x="259" y="272" type="line"/>
      <point x="90" y="525" type="line"/>
      <point x="177" y="525" type="line"/>
      <point x="274" y="374" type="line" smooth="yes"/>
      <point x="290" y="350"/>
      <point x="296" y="342"/>
      <point x="307" y="321" type="curve"/>
      <point x="319" y="342"/>
      <point x="324" y="351"/>
      <point x="338" y="374" type="curve" smooth="yes"/>
      <point x="431" y="525" type="line"/>
      <point x="510" y="525" type="line"/>
      <point x="342" y="270" type="line"/>
      <point x="522" y="0" type="line"/>
      <point x="435" y="0" type="line"/>
      <point x="335" y="156" type="line" smooth="yes"/>
      <point x="318" y="183"/>
      <point x="312" y="193"/>
      <point x="298" y="218" type="curve"/>
      <point x="284" y="193"/>
      <point x="276" y="183"/>
      <point x="259" y="156" type="curve" smooth="yes"/>
      <point x="158" y="0" type="line"/>
    </contour>
  </outline>
</glyph>
<glyph name="y" format="1">
  <advance width="600"/>
  <unicode hex="0079"/>
  <outline>
    <contour>
      <point x="184" y="-185" type="line"/>
      <point x="262" y="11" type="line"/>
      <point x="63" y="525" type="line"/>
      <point x="148" y="525" type="line"/>
      <point x="296" y="107" type="line" smooth="yes"/>
      <point x="298" y="100"/>
      <point x="301" y="92"/>
      <point x="302" y="85" type="curve"/>
      <point x="304" y="92"/>
      <point x="306" y="100"/>
      <point x="308" y="107" type="curve" smooth="yes"/>
      <point x="456" y="525" type="line"/>
      <point x="537" y="525" type="line"/>
      <point x="261" y="-185" type="line"/>
    </contour>
  </outline>
</glyph>
<glyph name="z" format="1">
  <advance width="600"/>
  <unicode hex="007A"/>
  <outline>
    <contour>
      <point x="84" y="0" type="line"/>
      <point x="84" y="57" type="line"/>
      <point x="414" y="460" type="line"/>
      <point x="110" y="460" type="line"/>
      <point x="110" y="525" type="line"/>
      <point x="503" y="525" type="line"/>
      <point x="503" y="468" type="line"/>
      <point x="173" y="65" type="line"/>
      <point x="503" y="65" type="line"/>
      <point x="503" y="0" type="line"/>
    </contour>
  </outline>
</glyph>
<glyph name="braceleft" format="1">
  <advance width="600"/>
  <unicode hex="007B"/>
  <outline>
    <contour>
      <point x="461" y="-110" type="line"/>
      <point x="302" y="-108"/>
      <point x="228" y="-24"/>
      <point x="228" y="124" type="curve" smooth="yes"/>
      <point x="228" y="200" type="line" smooth="yes"/>
      <point x="228" y="249"/>
      <point x="218" y="263"/>
      <point x="167" y="263" type="curve" smooth="yes"/>
      <point x="139" y="263" type="line"/>
      <point x="139" y="333" type="line"/>
      <point x="167" y="333" type="line" smooth="yes"/>
      <point x="218" y="333"/>
      <point x="228" y="348"/>
      <point x="228" y="397" type="curve" smooth="yes"/>
      <point x="228" y="467" type="line" smooth="yes"/>
      <point x="228" y="616"/>
      <point x="302" y="699"/>
      <point x="461" y="701" type="curve"/>
      <point x="461" y="636" type="line"/>
      <point x="347" y="628"/>
      <point x="303" y="579"/>
      <point x="303" y="475" type="curve" smooth="yes"/>
      <point x="303" y="438" type="line" smooth="yes"/>
      <point x="303" y="351"/>
      <point x="289" y="321"/>
      <point x="243" y="298" type="curve"/>
      <point x="289" y="275"/>
      <point x="303" y="242"/>
      <point x="303" y="155" type="curve" smooth="yes"/>
      <point x="303" y="116" type="line" smooth="yes"/>
      <point x="303" y="12"/>
      <point x="347" y="-37"/>
      <point x="461" y="-45" type="curve"/>
    </contour>
  </outline>
</glyph>
<glyph name="bar" format="1">
  <advance width="600"/>
  <unicode hex="007C"/>
  <outline>
    <contour>
      <point x="267" y="-185" type="line"/>
      <point x="267" y="800" type="line"/>
      <point x="333" y="800" type="line"/>
      <point x="333" y="-185" type="line"/>
    </contour>
  </outline>
</glyph>
<glyph name="braceright" format="1">
  <advance width="600"/>
  <unicode hex="007D"/>
  <outline>
    <contour>
      <point x="138" y="-110" type="curve"/>
      <point x="138" y="-45" type="line"/>
      <point x="252" y="-37"/>
      <point x="296" y="12"/>
      <point x="296" y="116" type="curve" smooth="yes"/>
      <point x="296" y="155" type="line" smooth="yes"/>
      <point x="296" y="242"/>
      <point x="310" y="275"/>
      <point x="356" y="298" type="curve"/>
      <point x="310" y="321"/>
      <point x="296" y="351"/>
      <point x="296" y="438" type="curve" smooth="yes"/>
      <point x="296" y="475" type="line" smooth="yes"/>
      <point x="296" y="579"/>
      <point x="252" y="628"/>
      <point x="138" y="636" type="curve"/>
      <point x="138" y="701" type="line"/>
      <point x="297" y="699"/>
      <point x="371" y="616"/>
      <point x="371" y="467" type="curve" smooth="yes"/>
      <point x="371" y="397" type="line" smooth="yes"/>
      <point x="371" y="348"/>
      <point x="381" y="333"/>
      <point x="432" y="333" type="curve" smooth="yes"/>
      <point x="460" y="333" type="line"/>
      <point x="460" y="263" type="line"/>
      <point x="432" y="263" type="line" smooth="yes"/>
      <point x="381" y="263"/>
      <point x="371" y="249"/>
      <point x="371" y="200" type="curve" smooth="yes"/>
      <point x="371" y="124" type="line" smooth="yes"/>
      <point x="371" y="-24"/>
      <point x="297" y="-108"/>
    </contour>
  </outline>
</glyph>
<glyph name="asciitilde" format="1">
  <advance width="600"/>
  <unicode hex="007E"/>
  <outline>
    <contour>
      <point x="133" y="290" type="curve"/>
      <point x="67" y="320" type="line"/>
      <point x="101" y="404"/>
      <point x="139" y="446"/>
      <point x="210" y="446" type="curve" smooth="yes"/>
      <point x="248" y="446"/>
      <point x="272" y="433"/>
      <point x="304" y="412" type="curve" smooth="yes"/>
      <point x="343" y="387"/>
      <point x="366" y="373"/>
      <point x="390" y="373" type="curve" smooth="yes"/>
      <point x="426" y="373"/>
      <point x="440" y="392"/>
      <point x="467" y="452" type="curve"/>
      <point x="533" y="422" type="line"/>
      <point x="499" y="338"/>
      <point x="461" y="296"/>
      <point x="390" y="296" type="curve" smooth="yes"/>
      <point x="350" y="296"/>
      <point x="326" y="310"/>
      <point x="296" y="330" type="curve" smooth="yes"/>
      <point x="255" y="357"/>
      <point x="230" y="369"/>
      <point x="210" y="369" type="curve" smooth="yes"/>
      <point x="174" y="369"/>
      <point x="158" y="347"/>
    </contour>
  </outline>
</glyph>
<glyph name="exclamdown" format="1">
  <advance width="600"/>
  <unicode hex="00A1"/>
  <outline>
    <contour>
      <point x="300" y="576" type="curve" smooth="yes"/>
      <point x="262" y="576"/>
      <point x="233" y="605"/>
      <point x="233" y="644" type="curve" smooth="yes"/>
      <point x="233" y="682"/>
      <point x="262" y="711"/>
      <point x="300" y="711" type="curve" smooth="yes"/>
      <point x="338" y="711"/>
      <point x="367" y="682"/>
      <point x="367" y="644" type="curve" smooth="yes"/>
      <point x="367" y="605"/>
      <point x="338" y="576"/>
    </contour>
    <contour>
      <point x="259" y="0" type="line"/>
      <point x="259" y="307" type="line"/>
      <point x="278" y="480" type="line"/>
      <point x="323" y="480" type="line"/>
      <point x="342" y="307" type="line"/>
      <point x="342" y="0" type="line"/>
    </contour>
  </outline>
</glyph>
<glyph name="cent" format="1">
  <advance width="600"/>
  <unicode hex="00A2"/>
  <outline>
    <contour>
      <point x="295" y="-11" type="line"/>
      <point x="295" y="84" type="line"/>
      <point x="186" y="99"/>
      <point x="93" y="184"/>
      <point x="93" y="354" type="curve" smooth="yes"/>
      <point x="93" y="528"/>
      <point x="192" y="609"/>
      <point x="295" y="626" type="curve"/>
      <point x="295" y="720" type="line"/>
      <point x="360" y="720" type="line"/>
      <point x="360" y="628" type="line"/>
      <point x="427" y="624"/>
      <point x="474" y="600"/>
      <point x="514" y="563" type="curve"/>
      <point x="470" y="507" type="line"/>
      <point x="437" y="537"/>
      <point x="406" y="557"/>
      <point x="357" y="562" type="curve"/>
      <point x="357" y="149" type="line"/>
      <point x="405" y="156"/>
      <point x="442" y="181"/>
      <point x="472" y="214" type="curve"/>
      <point x="516" y="164" type="line"/>
      <point x="481" y="124"/>
      <point x="431" y="91"/>
      <point x="360" y="83" type="curve"/>
      <point x="360" y="-11" type="line"/>
    </contour>
    <contour>
      <point x="298" y="151" type="curve"/>
      <point x="298" y="560" type="line"/>
      <point x="217" y="545"/>
      <point x="169" y="471"/>
      <point x="169" y="361" type="curve" smooth="yes"/>
      <point x="169" y="246"/>
      <point x="209" y="167"/>
    </contour>
  </outline>
</glyph>
<glyph name="sterling" format="1">
  <advance width="600"/>
  <unicode hex="00A3"/>
  <outline>
    <contour>
      <point x="96" y="0" type="line"/>
      <point x="96" y="68" type="line"/>
      <point x="151" y="137"/>
      <point x="185" y="196"/>
      <point x="186" y="294" type="curve"/>
      <point x="96" y="294" type="line"/>
      <point x="96" y="360" type="line"/>
      <point x="176" y="360" type="line"/>
      <point x="169" y="382"/>
      <point x="158" y="402"/>
      <point x="146" y="424" type="curve" smooth="yes"/>
      <point x="125" y="461"/>
      <point x="114" y="492"/>
      <point x="114" y="540" type="curve" smooth="yes"/>
      <point x="114" y="649"/>
      <point x="202" y="711"/>
      <point x="319" y="711" type="curve" smooth="yes"/>
      <point x="404" y="711"/>
      <point x="467" y="677"/>
      <point x="520" y="611" type="curve"/>
      <point x="469" y="562" type="line"/>
      <point x="427" y="616"/>
      <point x="377" y="643"/>
      <point x="317" y="643" type="curve" smooth="yes"/>
      <point x="229" y="643"/>
      <point x="189" y="601"/>
      <point x="189" y="542" type="curve" smooth="yes"/>
      <point x="189" y="509"/>
      <point x="201" y="476"/>
      <point x="219" y="443" type="curve" smooth="yes"/>
      <point x="231" y="420"/>
      <point x="243" y="392"/>
      <point x="251" y="360" type="curve"/>
      <point x="390" y="360" type="line"/>
      <point x="390" y="294" type="line"/>
      <point x="257" y="294" type="line"/>
      <point x="255" y="192"/>
      <point x="217" y="124"/>
      <point x="177" y="70" type="curve"/>
      <point x="526" y="70" type="line"/>
      <point x="526" y="0" type="line"/>
    </contour>
  </outline>
</glyph>
<glyph name="yen" format="1">
  <advance width="600"/>
  <unicode hex="00A5"/>
  <outline>
    <contour>
      <point x="261" y="0" type="line"/>
      <point x="261" y="132" type="line"/>
      <point x="117" y="132" type="line"/>
      <point x="117" y="199" type="line"/>
      <point x="261" y="199" type="line"/>
      <point x="261" y="284" type="line"/>
      <point x="58" y="700" type="line"/>
      <point x="142" y="700" type="line"/>
      <point x="234" y="504" type="line" smooth="yes"/>
      <point x="259" y="450"/>
      <point x="285" y="390"/>
      <point x="301" y="350" type="curve"/>
      <point x="319" y="392"/>
      <point x="345" y="453"/>
      <point x="369" y="504" type="curve" smooth="yes"/>
      <point x="461" y="700" type="line"/>
      <point x="541" y="700" type="line"/>
      <point x="338" y="285" type="line"/>
      <point x="338" y="199" type="line"/>
      <point x="482" y="199" type="line"/>
      <point x="482" y="132" type="line"/>
      <point x="338" y="132" type="line"/>
      <point x="338" y="0" type="line"/>
    </contour>
  </outline>
</glyph>
<glyph name="section" format="1">
  <advance width="600"/>
  <unicode hex="00A7"/>
  <outline>
    <contour>
      <point x="296" y="-164" type="curve" smooth="yes"/>
      <point x="221" y="-164"/>
      <point x="164" y="-136"/>
      <point x="118" y="-81" type="curve"/>
      <point x="167" y="-30" type="line"/>
      <point x="208" y="-76"/>
      <point x="247" y="-96"/>
      <point x="306" y="-96" type="curve" smooth="yes"/>
      <point x="359" y="-96"/>
      <point x="396" y="-66"/>
      <point x="396" y="-20" type="curve" smooth="yes"/>
      <point x="396" y="28"/>
      <point x="369" y="58"/>
      <point x="271" y="87" type="curve" smooth="yes"/>
      <point x="120" y="132"/>
      <point x="69" y="178"/>
      <point x="69" y="279" type="curve" smooth="yes"/>
      <point x="69" y="357"/>
      <point x="121" y="414"/>
      <point x="183" y="451" type="curve"/>
      <point x="148" y="478"/>
      <point x="130" y="513"/>
      <point x="130" y="561" type="curve" smooth="yes"/>
      <point x="130" y="654"/>
      <point x="201" y="711"/>
      <point x="304" y="711" type="curve" smooth="yes"/>
      <point x="379" y="711"/>
      <point x="436" y="683"/>
      <point x="482" y="627" type="curve"/>
      <point x="434" y="578" type="line"/>
      <point x="391" y="627"/>
      <point x="353" y="643"/>
      <point x="294" y="643" type="curve" smooth="yes"/>
      <point x="241" y="643"/>
      <point x="204" y="613"/>
      <point x="204" y="567" type="curve" smooth="yes"/>
      <point x="204" y="519"/>
      <point x="231" y="489"/>
      <point x="329" y="460" type="curve" smooth="yes"/>
      <point x="480" y="415"/>
      <point x="531" y="369"/>
      <point x="531" y="268" type="curve" smooth="yes"/>
      <point x="531" y="187"/>
      <point x="480" y="132"/>
      <point x="416" y="96" type="curve"/>
      <point x="453" y="69"/>
      <point x="470" y="34"/>
      <point x="470" y="-14" type="curve" smooth="yes"/>
      <point x="470" y="-107"/>
      <point x="399" y="-164"/>
    </contour>
    <contour>
      <point x="362" y="131" type="curve"/>
      <point x="426" y="164"/>
      <point x="458" y="206"/>
      <point x="458" y="262" type="curve" smooth="yes"/>
      <point x="458" y="322"/>
      <point x="432" y="357"/>
      <point x="319" y="389" type="curve" smooth="yes"/>
      <point x="290" y="397"/>
      <point x="263" y="406"/>
      <point x="238" y="416" type="curve"/>
      <point x="177" y="384"/>
      <point x="142" y="340"/>
      <point x="142" y="285" type="curve" smooth="yes"/>
      <point x="142" y="225"/>
      <point x="168" y="190"/>
      <point x="281" y="158" type="curve" smooth="yes"/>
      <point x="310" y="150"/>
      <point x="337" y="141"/>
    </contour>
  </outline>
</glyph>
<glyph name="dieresis" format="1">
  <advance width="600"/>
  <unicode hex="00A8"/>
  <outline>
    <contour>
      <point x="403" y="611" type="curve" smooth="yes"/>
      <point x="367" y="611"/>
      <point x="344" y="636"/>
      <point x="344" y="665" type="curve" smooth="yes"/>
      <point x="344" y="696"/>
      <point x="367" y="719"/>
      <point x="403" y="719" type="curve" smooth="yes"/>
      <point x="435" y="719"/>
      <point x="462" y="696"/>
      <point x="462" y="665" type="curve" smooth="yes"/>
      <point x="462" y="636"/>
      <point x="435" y="611"/>
    </contour>
    <contour>
      <point x="197" y="611" type="curve" smooth="yes"/>
      <point x="161" y="611"/>
      <point x="138" y="636"/>
      <point x="138" y="665" type="curve" smooth="yes"/>
      <point x="138" y="696"/>
      <point x="161" y="719"/>
      <point x="197" y="719" type="curve" smooth="yes"/>
      <point x="229" y="719"/>
      <point x="256" y="696"/>
      <point x="256" y="665" type="curve" smooth="yes"/>
      <point x="256" y="636"/>
      <point x="229" y="611"/>
    </contour>
  </outline>
</glyph>
<glyph name="copyright" format="1">
  <advance width="600"/>
  <unicode hex="00A9"/>
  <outline>
    <contour>
      <point x="299" y="-11" type="curve" smooth="yes"/>
      <point x="151" y="-11"/>
      <point x="62" y="135"/>
      <point x="62" y="350" type="curve" smooth="yes"/>
      <point x="62" y="565"/>
      <point x="151" y="711"/>
      <point x="299" y="711" type="curve" smooth="yes"/>
      <point x="449" y="711"/>
      <point x="539" y="565"/>
      <point x="539" y="350" type="curve" smooth="yes"/>
      <point x="539" y="135"/>
      <point x="449" y="-11"/>
    </contour>
    <contour>
      <point x="299" y="34" type="curve" smooth="yes"/>
      <point x="425" y="34"/>
      <point x="492" y="163"/>
      <point x="492" y="350" type="curve" smooth="yes"/>
      <point x="492" y="537"/>
      <point x="425" y="666"/>
      <point x="299" y="666" type="curve" smooth="yes"/>
      <point x="174" y="666"/>
      <point x="108" y="537"/>
      <point x="108" y="350" type="curve" smooth="yes"/>
      <point x="108" y="163"/>
      <point x="174" y="34"/>
    </contour>
    <contour>
      <point x="297" y="147" type="curve" smooth="yes"/>
      <point x="228" y="147"/>
      <point x="196" y="221"/>
      <point x="196" y="350" type="curve" smooth="yes"/>
      <point x="196" y="479"/>
      <point x="231" y="554"/>
      <point x="299" y="554" type="curve" smooth="yes"/>
      <point x="348" y="554"/>
      <point x="374" y="521"/>
      <point x="390" y="460" type="curve"/>
      <point x="344" y="443" type="line"/>
      <point x="331" y="495"/>
      <point x="320" y="506"/>
      <point x="298" y="506" type="curve" smooth="yes"/>
      <point x="262" y="506"/>
      <point x="245" y="454"/>
      <point x="245" y="351" type="curve" smooth="yes"/>
      <point x="245" y="244"/>
      <point x="263" y="196"/>
      <point x="299" y="196" type="curve" smooth="yes"/>
      <point x="323" y="196"/>
      <point x="334" y="211"/>
      <point x="349" y="259" type="curve"/>
      <point x="392" y="241" type="line"/>
      <point x="375" y="182"/>
      <point x="349" y="147"/>
    </contour>
  </outline>
</glyph>
<glyph name="ordfeminine" format="1">
  <advance width="600"/>
  <unicode hex="00AA"/>
  <outline>
    <contour>
      <point x="250" y="273" type="curve" smooth="yes"/>
      <point x="183" y="273"/>
      <point x="112" y="307"/>
      <point x="112" y="409" type="curve" smooth="yes"/>
      <point x="112" y="505"/>
      <point x="190" y="545"/>
      <point x="276" y="545" type="curve" smooth="yes"/>
      <point x="317" y="545"/>
      <point x="352" y="536"/>
      <point x="377" y="524" type="curve"/>
      <point x="377" y="567" type="line" smooth="yes"/>
      <point x="377" y="624"/>
      <point x="349" y="654"/>
      <point x="290" y="654" type="curve" smooth="yes"/>
      <point x="247" y="654"/>
      <point x="210" y="643"/>
      <point x="175" y="622" type="curve"/>
      <point x="148" y="676" type="line"/>
      <point x="188" y="697"/>
      <point x="239" y="711"/>
      <point x="294" y="711" type="curve" smooth="yes"/>
      <point x="387" y="711"/>
      <point x="445" y="673"/>
      <point x="445" y="574" type="curve" smooth="yes"/>
      <point x="445" y="282" type="line"/>
      <point x="377" y="282" type="line"/>
      <point x="377" y="326" type="line"/>
      <point x="348" y="297"/>
      <point x="307" y="273"/>
    </contour>
    <contour>
      <point x="260" y="329" type="curve" smooth="yes"/>
      <point x="313" y="329"/>
      <point x="352" y="355"/>
      <point x="377" y="388" type="curve"/>
      <point x="377" y="468" type="line"/>
      <point x="351" y="481"/>
      <point x="321" y="490"/>
      <point x="273" y="490" type="curve" smooth="yes"/>
      <point x="215" y="490"/>
      <point x="179" y="462"/>
      <point x="179" y="413" type="curve" smooth="yes"/>
      <point x="179" y="355"/>
      <point x="212" y="329"/>
    </contour>
  </outline>
</glyph>
<glyph name="guillemotleft" format="1">
  <advance width="600"/>
  <unicode hex="00AB"/>
  <outline>
    <contour>
      <point x="453" y="0" type="line"/>
      <point x="256" y="262" type="line"/>
      <point x="453" y="525" type="line"/>
      <point x="537" y="525" type="line"/>
      <point x="339" y="263" type="line"/>
      <point x="537" y="0" type="line"/>
    </contour>
    <contour>
      <point x="246" y="0" type="line"/>
      <point x="49" y="262" type="line"/>
      <point x="246" y="525" type="line"/>
      <point x="329" y="525" type="line"/>
      <point x="132" y="263" type="line"/>
      <point x="329" y="0" type="line"/>
    </contour>
  </outline>
</glyph>
<glyph name="degree" format="1">
  <advance width="600"/>
  <unicode hex="00B0"/>
  <outline>
    <contour>
      <point x="300" y="327" type="curve" smooth="yes"/>
      <point x="192" y="327"/>
      <point x="113" y="410"/>
      <point x="113" y="520" type="curve" smooth="yes"/>
      <point x="113" y="627"/>
      <point x="192" y="711"/>
      <point x="300" y="711" type="curve" smooth="yes"/>
      <point x="409" y="711"/>
      <point x="487" y="627"/>
      <point x="487" y="520" type="curve" smooth="yes"/>
      <point x="487" y="410"/>
      <point x="409" y="327"/>
    </contour>
    <contour>
      <point x="300" y="389" type="curve" smooth="yes"/>
      <point x="373" y="389"/>
      <point x="421" y="442"/>
      <point x="421" y="520" type="curve" smooth="yes"/>
      <point x="421" y="594"/>
      <point x="373" y="649"/>
      <point x="300" y="649" type="curve" smooth="yes"/>
      <point x="228" y="649"/>
      <point x="179" y="594"/>
      <point x="179" y="520" type="curve" smooth="yes"/>
      <point x="179" y="442"/>
      <point x="228" y="389"/>
    </contour>
  </outline>
</glyph>
<glyph name="acute" format="1">
  <advance width="600"/>
  <unicode hex="00B4"/>
  <outline>
    <contour>
      <point x="264" y="595" type="line"/>
      <point x="367" y="755" type="line"/>
      <point x="474" y="755" type="line"/>
      <point x="323" y="595" type="line"/>
    </contour>
  </outline>
</glyph>
<glyph name="paragraph" format="1">
  <advance width="600"/>
  <unicode hex="00B6"/>
  <outline>
    <contour>
      <point x="299" y="-185" type="line"/>
      <point x="299" y="293" type="line"/>
      <point x="257" y="293" type="line" smooth="yes"/>
      <point x="149" y="293"/>
      <point x="57" y="366"/>
      <point x="57" y="497" type="curve" smooth="yes"/>
      <point x="57" y="627"/>
      <point x="150" y="700"/>
      <point x="257" y="700" type="curve" smooth="yes"/>
      <point x="508" y="700" type="line"/>
      <point x="508" y="-185" type="line"/>
      <point x="442" y="-185" type="line"/>
      <point x="442" y="638" type="line"/>
      <point x="365" y="638" type="line"/>
      <point x="365" y="-185" type="line"/>
    </contour>
  </outline>
</glyph>
<glyph name="periodcentered" format="1">
  <advance width="600"/>
  <unicode hex="00B7"/>
  <outline>
    <contour>
      <point x="299" y="285" type="curve" smooth="yes"/>
      <point x="253" y="285"/>
      <point x="216" y="320"/>
      <point x="216" y="368" type="curve" smooth="yes"/>
      <point x="216" y="415"/>
      <point x="253" y="450"/>
      <point x="299" y="450" type="curve" smooth="yes"/>
      <point x="345" y="450"/>
      <point x="382" y="415"/>
      <point x="382" y="368" type="curve" smooth="yes"/>
      <point x="382" y="320"/>
      <point x="345" y="285"/>
    </contour>
  </outline>
</glyph>
<glyph name="cedilla" format="1">
  <advance width="600"/>
  <unicode hex="00B8"/>
  <outline>
    <contour>
      <point x="304" y="-193" type="curve" smooth="yes"/>
      <point x="263" y="-193"/>
      <point x="221" y="-180"/>
      <point x="186" y="-157" type="curve"/>
      <point x="205" y="-125" type="line"/>
      <point x="233" y="-143"/>
      <point x="264" y="-152"/>
      <point x="297" y="-152" type="curve" smooth="yes"/>
      <point x="349" y="-152"/>
      <point x="364" y="-132"/>
      <point x="364" y="-109" type="curve" smooth="yes"/>
      <point x="364" y="-89"/>
      <point x="353" y="-76"/>
      <point x="332" y="-76" type="curve" smooth="yes"/>
      <point x="313" y="-76"/>
      <point x="297" y="-82"/>
      <point x="284" y="-94" type="curve"/>
      <point x="248" y="-80" type="line"/>
      <point x="273" y="0" type="line"/>
      <point x="318" y="0" type="line"/>
      <point x="301" y="-51" type="line"/>
      <point x="315" y="-42"/>
      <point x="332" y="-37"/>
      <point x="356" y="-37" type="curve" smooth="yes"/>
      <point x="383" y="-37"/>
      <point x="423" y="-55"/>
      <point x="423" y="-106" type="curve" smooth="yes"/>
      <point x="423" y="-171"/>
      <point x="368" y="-193"/>
    </contour>
  </outline>
</glyph>
<glyph name="ordmasculine" format="1">
  <advance width="600"/>
  <unicode hex="00BA"/>
  <outline>
    <contour>
      <point x="298" y="274" type="curve" smooth="yes"/>
      <point x="193" y="274"/>
      <point x="114" y="350"/>
      <point x="114" y="492" type="curve" smooth="yes"/>
      <point x="114" y="635"/>
      <point x="196" y="711"/>
      <point x="302" y="711" type="curve" smooth="yes"/>
      <point x="407" y="711"/>
      <point x="486" y="638"/>
      <point x="486" y="495" type="curve" smooth="yes"/>
      <point x="486" y="353"/>
      <point x="404" y="274"/>
    </contour>
    <contour>
      <point x="300" y="334" type="curve" smooth="yes"/>
      <point x="371" y="334"/>
      <point x="418" y="387"/>
      <point x="418" y="494" type="curve" smooth="yes"/>
      <point x="418" y="600"/>
      <point x="371" y="651"/>
      <point x="300" y="651" type="curve" smooth="yes"/>
      <point x="229" y="651"/>
      <point x="182" y="600"/>
      <point x="182" y="494" type="curve" smooth="yes"/>
      <point x="182" y="387"/>
      <point x="229" y="334"/>
    </contour>
  </outline>
</glyph>
<glyph name="guillemotright" format="1">
  <advance width="600"/>
  <unicode hex="00BB"/>
  <outline>
    <contour>
      <point x="271" y="0" type="line"/>
      <point x="468" y="262" type="line"/>
      <point x="271" y="525" type="line"/>
      <point x="354" y="525" type="line"/>
      <point x="551" y="263" type="line"/>
      <point x="354" y="0" type="line"/>
    </contour>
    <contour>
      <point x="63" y="0" type="line"/>
      <point x="261" y="262" type="line"/>
      <point x="63" y="525" type="line"/>
      <point x="147" y="525" type="line"/>
      <point x="344" y="263" type="line"/>
      <point x="147" y="0" type="line"/>
    </contour>
  </outline>
</glyph>
<glyph name="questiondown" format="1">
  <advance width="600"/>
  <unicode hex="00BF"/>
  <outline>
    <contour>
      <point x="326" y="576" type="curve" smooth="yes"/>
      <point x="288" y="576"/>
      <point x="259" y="605"/>
      <point x="259" y="644" type="curve" smooth="yes"/>
      <point x="259" y="682"/>
      <point x="288" y="711"/>
      <point x="326" y="711" type="curve" smooth="yes"/>
      <point x="364" y="711"/>
      <point x="393" y="682"/>
      <point x="393" y="644" type="curve" smooth="yes"/>
      <point x="393" y="605"/>
      <point x="364" y="576"/>
    </contour>
    <contour>
      <point x="302" y="-11" type="curve" smooth="yes"/>
      <point x="176" y="-11"/>
      <point x="89" y="49"/>
      <point x="89" y="158" type="curve" smooth="yes"/>
      <point x="89" y="257"/>
      <point x="138" y="296"/>
      <point x="211" y="341" type="curve" smooth="yes"/>
      <point x="278" y="382"/>
      <point x="288" y="411"/>
      <point x="288" y="480" type="curve"/>
      <point x="362" y="480" type="line"/>
      <point x="362" y="387"/>
      <point x="350" y="349"/>
      <point x="246" y="284" type="curve" smooth="yes"/>
      <point x="194" y="252"/>
      <point x="165" y="223"/>
      <point x="165" y="163" type="curve" smooth="yes"/>
      <point x="165" y="95"/>
      <point x="213" y="58"/>
      <point x="305" y="58" type="curve" smooth="yes"/>
      <point x="384" y="58"/>
      <point x="437" y="89"/>
      <point x="488" y="135" type="curve"/>
      <point x="535" y="83" type="line"/>
      <point x="480" y="29"/>
      <point x="403" y="-11"/>
    </contour>
  </outline>
</glyph>
<glyph name="Aring" format="1">
  <advance width="600"/>
  <unicode hex="00C5"/>
  <outline>
    <contour>
      <point x="351" y="666" type="curve"/>
      <point x="538" y="0" type="line"/>
      <point x="461" y="0" type="line"/>
      <point x="413" y="178" type="line"/>
      <point x="186" y="178" type="line"/>
      <point x="137" y="0" type="line"/>
      <point x="63" y="0" type="line"/>
      <point x="250" y="665" type="line"/>
      <point x="209" y="684"/>
      <point x="183" y="724"/>
      <point x="183" y="772" type="curve" smooth="yes"/>
      <point x="183" y="837"/>
      <point x="232" y="888"/>
      <point x="300" y="888" type="curve" smooth="yes"/>
      <point x="368" y="888"/>
      <point x="417" y="837"/>
      <point x="417" y="772" type="curve" smooth="yes"/>
      <point x="417" y="725"/>
      <point x="391" y="685"/>
    </contour>
    <contour>
      <point x="300" y="700" type="curve" smooth="yes"/>
      <point x="343" y="700"/>
      <point x="370" y="730"/>
      <point x="370" y="772" type="curve" smooth="yes"/>
      <point x="370" y="813"/>
      <point x="343" y="843"/>
      <point x="300" y="843" type="curve" smooth="yes"/>
      <point x="257" y="843"/>
      <point x="230" y="813"/>
      <point x="230" y="772" type="curve" smooth="yes"/>
      <point x="230" y="730"/>
      <point x="257" y="700"/>
    </contour>
    <contour>
      <point x="205" y="248" type="line"/>
      <point x="394" y="248" type="line"/>
      <point x="339" y="445" type="line" smooth="yes"/>
      <point x="323" y="504"/>
      <point x="307" y="575"/>
      <point x="299" y="618" type="curve"/>
      <point x="292" y="575"/>
      <point x="276" y="504"/>
      <point x="259" y="443" type="curve" smooth="yes"/>
    </contour>
  </outline>
</glyph>
<glyph name="AE" format="1">
  <advance width="600"/>
  <unicode hex="00C6"/>
  <outline>
    <contour>
      <point x="11" y="0" type="line"/>
      <point x="267" y="700" type="line"/>
      <point x="560" y="700" type="line"/>
      <point x="560" y="633" type="line"/>
      <point x="366" y="633" type="line"/>
      <point x="366" y="406" type="line"/>
      <point x="498" y="406" type="line"/>
      <point x="498" y="339" type="line"/>
      <point x="366" y="339" type="line"/>
      <point x="366" y="67" type="line"/>
      <point x="571" y="67" type="line"/>
      <point x="571" y="0" type="line"/>
      <point x="292" y="0" type="line"/>
      <point x="292" y="177" type="line"/>
      <point x="150" y="177" type="line"/>
      <point x="85" y="0" type="line"/>
    </contour>
    <contour>
      <point x="174" y="245" type="line"/>
      <point x="292" y="245" type="line"/>
      <point x="292" y="463" type="line" smooth="yes"/>
      <point x="292" y="511"/>
      <point x="293" y="571"/>
      <point x="294" y="599" type="curve"/>
      <point x="286" y="565"/>
      <point x="270" y="514"/>
      <point x="252" y="463" type="curve" smooth="yes"/>
    </contour>
  </outline>
</glyph>
<glyph name="Ccedilla" format="1">
  <advance width="600"/>
  <unicode hex="00C7"/>
  <outline>
    <contour>
      <point x="277" y="-8" type="line"/>
      <point x="147" y="15"/>
      <point x="71" y="148"/>
      <point x="71" y="350" type="curve" smooth="yes"/>
      <point x="71" y="571"/>
      <point x="168" y="711"/>
      <point x="321" y="711" type="curve" smooth="yes"/>
      <point x="413" y="711"/>
      <point x="475" y="668"/>
      <point x="521" y="584" type="curve"/>
      <point x="460" y="545" type="line"/>
      <point x="421" y="615"/>
      <point x="384" y="642"/>
      <point x="319" y="642" type="curve" smooth="yes"/>
      <point x="216" y="642"/>
      <point x="149" y="548"/>
      <point x="149" y="350" type="curve" smooth="yes"/>
      <point x="149" y="153"/>
      <point x="218" y="58"/>
      <point x="321" y="58" type="curve" smooth="yes"/>
      <point x="390" y="58"/>
      <point x="428" y="92"/>
      <point x="468" y="158" type="curve"/>
      <point x="524" y="118" type="line"/>
      <point x="480" y="44"/>
      <point x="417" y="-10"/>
      <point x="320" y="-11" type="curve"/>
      <point x="307" y="-51" type="line"/>
      <point x="321" y="-42"/>
      <point x="338" y="-37"/>
      <point x="362" y="-37" type="curve" smooth="yes"/>
      <point x="389" y="-37"/>
      <point x="429" y="-55"/>
      <point x="429" y="-106" type="curve" smooth="yes"/>
      <point x="429" y="-171"/>
      <point x="374" y="-193"/>
      <point x="310" y="-193" type="curve" smooth="yes"/>
      <point x="269" y="-193"/>
      <point x="227" y="-180"/>
      <point x="192" y="-157" type="curve"/>
      <point x="211" y="-125" type="line"/>
      <point x="239" y="-143"/>
      <point x="270" y="-152"/>
      <point x="303" y="-152" type="curve" smooth="yes"/>
      <point x="355" y="-152"/>
      <point x="370" y="-132"/>
      <point x="370" y="-109" type="curve" smooth="yes"/>
      <point x="370" y="-89"/>
      <point x="359" y="-76"/>
      <point x="338" y="-76" type="curve" smooth="yes"/>
      <point x="319" y="-76"/>
      <point x="303" y="-82"/>
      <point x="290" y="-94" type="curve"/>
      <point x="254" y="-80" type="line"/>
    </contour>
  </outline>
</glyph>
<glyph name="Oslash" format="1">
  <advance width="600"/>
  <unicode hex="00D8"/>
  <outline>
    <contour>
      <point x="100" y="-50" type="line"/>
      <point x="147" y="62" type="line"/>
      <point x="98" y="124"/>
      <point x="71" y="224"/>
      <point x="71" y="350" type="curve" smooth="yes"/>
      <point x="71" y="571"/>
      <point x="156" y="711"/>
      <point x="300" y="711" type="curve" smooth="yes"/>
      <point x="342" y="711"/>
      <point x="378" y="700"/>
      <point x="409" y="678" type="curve"/>
      <point x="440" y="750" type="line"/>
      <point x="500" y="750" type="line"/>
      <point x="452" y="637" type="line"/>
      <point x="502" y="575"/>
      <point x="529" y="476"/>
      <point x="529" y="350" type="curve" smooth="yes"/>
      <point x="529" y="129"/>
      <point x="443" y="-11"/>
      <point x="299" y="-11" type="curve" smooth="yes"/>
      <point x="258" y="-11"/>
      <point x="221" y="0"/>
      <point x="191" y="22" type="curve"/>
      <point x="160" y="-50" type="line"/>
    </contour>
    <contour>
      <point x="180" y="139" type="curve"/>
      <point x="382" y="614" type="line"/>
      <point x="359" y="636"/>
      <point x="331" y="645"/>
      <point x="298" y="645" type="curve" smooth="yes"/>
      <point x="202" y="645"/>
      <point x="147" y="554"/>
      <point x="147" y="350" type="curve" smooth="yes"/>
      <point x="147" y="255"/>
      <point x="159" y="186"/>
    </contour>
    <contour>
      <point x="301" y="56" type="curve" smooth="yes"/>
      <point x="397" y="56"/>
      <point x="453" y="146"/>
      <point x="453" y="350" type="curve" smooth="yes"/>
      <point x="453" y="445"/>
      <point x="441" y="514"/>
      <point x="420" y="561" type="curve"/>
      <point x="218" y="86" type="line"/>
      <point x="241" y="65"/>
      <point x="269" y="56"/>
    </contour>
  </outline>
</glyph>
<glyph name="Thorn" format="1">
  <advance width="600"/>
  <unicode hex="00DE"/>
  <outline>
    <contour>
      <point x="103" y="0" type="line"/>
      <point x="103" y="700" type="line"/>
      <point x="180" y="700" type="line"/>
      <point x="180" y="569" type="line"/>
      <point x="331" y="569" type="line" smooth="yes"/>
      <point x="449" y="569"/>
      <point x="539" y="504"/>
      <point x="539" y="365" type="curve" smooth="yes"/>
      <point x="539" y="226"/>
      <point x="446" y="153"/>
      <point x="318" y="153" type="curve" smooth="yes"/>
      <point x="180" y="153" type="line"/>
      <point x="180" y="0" type="line"/>
    </contour>
    <contour>
      <point x="180" y="223" type="line"/>
      <point x="320" y="223" type="line" smooth="yes"/>
      <point x="416" y="223"/>
      <point x="461" y="268"/>
      <point x="461" y="362" type="curve" smooth="yes"/>
      <point x="461" y="453"/>
      <point x="416" y="499"/>
      <point x="328" y="499" type="curve" smooth="yes"/>
      <point x="180" y="499" type="line"/>
    </contour>
  </outline>
</glyph>
<glyph name="germandbls" format="1">
  <advance width="600"/>
  <unicode hex="00DF"/>
  <outline>
    <contour>
      <point x="101" y="-193" type="line"/>
      <point x="101" y="518" type="line" smooth="yes"/>
      <point x="101" y="653"/>
      <point x="175" y="726"/>
      <point x="288" y="726" type="curve" smooth="yes"/>
      <point x="401" y="726"/>
      <point x="473" y="650"/>
      <point x="473" y="549" type="curve" smooth="yes"/>
      <point x="473" y="467"/>
      <point x="431" y="425"/>
      <point x="383" y="404" type="curve"/>
      <point x="454" y="387"/>
      <point x="526" y="337"/>
      <point x="526" y="225" type="curve" smooth="yes"/>
      <point x="526" y="59"/>
      <point x="413" y="0"/>
      <point x="273" y="0" type="curve" smooth="yes"/>
      <point x="258" y="0" type="line"/>
      <point x="258" y="64" type="line"/>
      <point x="276" y="64" type="line" smooth="yes"/>
      <point x="389" y="64"/>
      <point x="450" y="114"/>
      <point x="450" y="219" type="curve" smooth="yes"/>
      <point x="450" y="323"/>
      <point x="370" y="365"/>
      <point x="278" y="365" type="curve" smooth="yes"/>
      <point x="258" y="365" type="line"/>
      <point x="258" y="430" type="line"/>
      <point x="281" y="430" type="line" smooth="yes"/>
      <point x="356" y="430"/>
      <point x="399" y="468"/>
      <point x="399" y="548" type="curve" smooth="yes"/>
      <point x="399" y="617"/>
      <point x="355" y="661"/>
      <point x="286" y="661" type="curve" smooth="yes"/>
      <point x="222" y="661"/>
      <point x="176" y="616"/>
      <point x="176" y="530" type="curve" smooth="yes"/>
      <point x="176" y="-151" type="line"/>
    </contour>
  </outline>
</glyph>
<glyph name="ae" format="1">
  <advance width="600"/>
  <unicode hex="00E6"/>
  <outline>
    <contour>
      <point x="160" y="-11" type="curve" smooth="yes"/>
      <point x="83" y="-11"/>
      <point x="21" y="38"/>
      <point x="21" y="159" type="curve" smooth="yes"/>
      <point x="21" y="277"/>
      <point x="81" y="329"/>
      <point x="170" y="329" type="curve" smooth="yes"/>
      <point x="207" y="329"/>
      <point x="234" y="320"/>
      <point x="258" y="305" type="curve"/>
      <point x="258" y="384" type="line" smooth="yes"/>
      <point x="258" y="446"/>
      <point x="234" y="474"/>
      <point x="183" y="474" type="curve" smooth="yes"/>
      <point x="146" y="474"/>
      <point x="119" y="460"/>
      <point x="82" y="431" type="curve"/>
      <point x="49" y="484" type="line"/>
      <point x="90" y="516"/>
      <point x="135" y="536"/>
      <point x="187" y="536" type="curve" smooth="yes"/>
      <point x="256" y="536"/>
      <point x="290" y="508"/>
      <point x="303" y="461" type="curve"/>
      <point x="329" y="508"/>
      <point x="366" y="536"/>
      <point x="419" y="536" type="curve" smooth="yes"/>
      <point x="523" y="536"/>
      <point x="574" y="433"/>
      <point x="574" y="268" type="curve" smooth="yes"/>
      <point x="574" y="257"/>
      <point x="574" y="250"/>
      <point x="573" y="242" type="curve"/>
      <point x="322" y="242" type="line"/>
      <point x="327" y="126"/>
      <point x="356" y="52"/>
      <point x="419" y="52" type="curve" smooth="yes"/>
      <point x="464" y="52"/>
      <point x="488" y="73"/>
      <point x="521" y="112" type="curve"/>
      <point x="563" y="68" type="line"/>
      <point x="522" y="19"/>
      <point x="482" y="-11"/>
      <point x="416" y="-11" type="curve" smooth="yes"/>
      <point x="370" y="-11"/>
      <point x="327" y="10"/>
      <point x="297" y="58" type="curve"/>
      <point x="258" y="14"/>
      <point x="223" y="-11"/>
    </contour>
    <contour>
      <point x="323" y="302" type="curve"/>
      <point x="507" y="302" type="line"/>
      <point x="503" y="402"/>
      <point x="479" y="473"/>
      <point x="418" y="473" type="curve" smooth="yes"/>
      <point x="364" y="473"/>
      <point x="329" y="418"/>
    </contour>
    <contour>
      <point x="168" y="49" type="curve" smooth="yes"/>
      <point x="204" y="49"/>
      <point x="239" y="69"/>
      <point x="273" y="114" type="curve"/>
      <point x="263" y="152"/>
      <point x="257" y="194"/>
      <point x="256" y="247" type="curve"/>
      <point x="232" y="262"/>
      <point x="209" y="269"/>
      <point x="169" y="269" type="curve" smooth="yes"/>
      <point x="111" y="269"/>
      <point x="89" y="233"/>
      <point x="89" y="163" type="curve" smooth="yes"/>
      <point x="89" y="88"/>
      <point x="116" y="49"/>
    </contour>
  </outline>
</glyph>
<glyph name="ccedilla" format="1">
  <advance width="600"/>
  <unicode hex="00E7"/>
  <outline>
    <contour>
      <point x="293" y="-8" type="line"/>
      <point x="185" y="7"/>
      <point x="93" y="92"/>
      <point x="93" y="261" type="curve" smooth="yes"/>
      <point x="93" y="459"/>
      <point x="221" y="536"/>
      <point x="337" y="536" type="curve" smooth="yes"/>
      <point x="416" y="536"/>
      <point x="469" y="511"/>
      <point x="514" y="470" type="curve"/>
      <point x="470" y="414" type="line"/>
      <point x="431" y="449"/>
      <point x="396" y="470"/>
      <point x="331" y="470" type="curve" smooth="yes"/>
      <point x="230" y="470"/>
      <point x="169" y="392"/>
      <point x="169" y="268" type="curve" smooth="yes"/>
      <point x="169" y="138"/>
      <point x="220" y="55"/>
      <point x="334" y="55" type="curve" smooth="yes"/>
      <point x="393" y="55"/>
      <point x="437" y="83"/>
      <point x="472" y="121" type="curve"/>
      <point x="516" y="71" type="line"/>
      <point x="477" y="27"/>
      <point x="421" y="-9"/>
      <point x="337" y="-11" type="curve"/>
      <point x="324" y="-51" type="line"/>
      <point x="338" y="-42"/>
      <point x="355" y="-37"/>
      <point x="379" y="-37" type="curve" smooth="yes"/>
      <point x="406" y="-37"/>
      <point x="446" y="-55"/>
      <point x="446" y="-106" type="curve" smooth="yes"/>
      <point x="446" y="-171"/>
      <point x="391" y="-193"/>
      <point x="327" y="-193" type="curve" smooth="yes"/>
      <point x="286" y="-193"/>
      <point x="244" y="-180"/>
      <point x="209" y="-157" type="curve"/>
      <point x="228" y="-125" type="line"/>
      <point x="256" y="-143"/>
      <point x="287" y="-152"/>
      <point x="320" y="-152" type="curve" smooth="yes"/>
      <point x="372" y="-152"/>
      <point x="387" y="-132"/>
      <point x="387" y="-109" type="curve" smooth="yes"/>
      <point x="387" y="-89"/>
      <point x="376" y="-76"/>
      <point x="355" y="-76" type="curve" smooth="yes"/>
      <point x="336" y="-76"/>
      <point x="320" y="-82"/>
      <point x="307" y="-94" type="curve"/>
      <point x="271" y="-80" type="line"/>
    </contour>
  </outline>
</glyph>
<glyph name="eth" format="1">
  <advance width="600"/>
  <unicode hex="00F0"/>
  <outline>
    <contour>
      <point x="298" y="-11" type="curve" smooth="yes"/>
      <point x="178" y="-11"/>
      <point x="75" y="75"/>
      <point x="75" y="235" type="curve" smooth="yes"/>
      <point x="75" y="396"/>
      <point x="175" y="482"/>
      <point x="282" y="482" type="curve" smooth="yes"/>
      <point x="372" y="482"/>
      <point x="422" y="447"/>
      <point x="458" y="394" type="curve"/>
      <point x="439" y="476"/>
      <point x="404" y="547"/>
      <point x="343" y="592" type="curve"/>
      <point x="344" y="592"/>
      <point x="288" y="530"/>
      <point x="288" y="530" type="curve"/>
      <point x="242" y="569" type="line"/>
      <point x="290" y="623" type="line"/>
      <point x="264" y="635"/>
      <point x="234" y="642"/>
      <point x="201" y="645" type="curve"/>
      <point x="201" y="711" type="line"/>
      <point x="250" y="707"/>
      <point x="295" y="694"/>
      <point x="335" y="673" type="curve"/>
      <point x="376" y="720" type="line"/>
      <point x="422" y="681" type="line"/>
      <point x="386" y="640" type="line"/>
      <point x="474" y="569"/>
      <point x="526" y="450"/>
      <point x="526" y="298" type="curve" smooth="yes"/>
      <point x="526" y="83"/>
      <point x="440" y="-11"/>
    </contour>
    <contour>
      <point x="300" y="53" type="curve" smooth="yes"/>
      <point x="385" y="53"/>
      <point x="449" y="111"/>
      <point x="449" y="237" type="curve" smooth="yes"/>
      <point x="449" y="364"/>
      <point x="385" y="417"/>
      <point x="293" y="417" type="curve" smooth="yes"/>
      <point x="205" y="417"/>
      <point x="151" y="358"/>
      <point x="151" y="237" type="curve" smooth="yes"/>
      <point x="151" y="109"/>
      <point x="215" y="53"/>
    </contour>
  </outline>
</glyph>
<glyph name="oslash" format="1">
  <advance width="600"/>
  <unicode hex="00F8"/>
  <outline>
    <contour>
      <point x="99" y="-50" type="line"/>
      <point x="151" y="46" type="line"/>
      <point x="103" y="92"/>
      <point x="73" y="165"/>
      <point x="73" y="263" type="curve" smooth="yes"/>
      <point x="73" y="441"/>
      <point x="175" y="536"/>
      <point x="302" y="536" type="curve" smooth="yes"/>
      <point x="339" y="536"/>
      <point x="373" y="528"/>
      <point x="403" y="513" type="curve"/>
      <point x="437" y="575" type="line"/>
      <point x="501" y="575" type="line"/>
      <point x="450" y="480" type="line"/>
      <point x="498" y="435"/>
      <point x="527" y="363"/>
      <point x="527" y="266" type="curve" smooth="yes"/>
      <point x="527" y="88"/>
      <point x="425" y="-11"/>
      <point x="298" y="-11" type="curve" smooth="yes"/>
      <point x="261" y="-11"/>
      <point x="227" y="-3"/>
      <point x="197" y="13" type="curve"/>
      <point x="163" y="-50" type="line"/>
    </contour>
    <contour>
      <point x="184" y="108" type="curve"/>
      <point x="373" y="457" type="line"/>
      <point x="352" y="469"/>
      <point x="327" y="474"/>
      <point x="300" y="474" type="curve" smooth="yes"/>
      <point x="210" y="474"/>
      <point x="147" y="405"/>
      <point x="147" y="264" type="curve" smooth="yes"/>
      <point x="147" y="194"/>
      <point x="161" y="142"/>
    </contour>
    <contour>
      <point x="300" y="51" type="curve" smooth="yes"/>
      <point x="390" y="51"/>
      <point x="453" y="123"/>
      <point x="453" y="264" type="curve" smooth="yes"/>
      <point x="453" y="333"/>
      <point x="439" y="383"/>
      <point x="416" y="417" type="curve"/>
      <point x="227" y="68" type="line"/>
      <point x="248" y="57"/>
      <point x="273" y="51"/>
    </contour>
  </outline>
</glyph>
<glyph name="thorn" format="1">
  <advance width="600"/>
  <unicode hex="00FE"/>
  <outline>
    <contour>
      <point x="103" y="-193" type="line"/>
      <point x="103" y="687" type="line"/>
      <point x="178" y="729" type="line"/>
      <point x="178" y="461" type="line"/>
      <point x="215" y="501"/>
      <point x="265" y="536"/>
      <point x="337" y="536" type="curve" smooth="yes"/>
      <point x="442" y="536"/>
      <point x="526" y="456"/>
      <point x="526" y="271" type="curve" smooth="yes"/>
      <point x="526" y="85"/>
      <point x="437" y="-11"/>
      <point x="327" y="-11" type="curve" smooth="yes"/>
      <point x="260" y="-11"/>
      <point x="215" y="17"/>
      <point x="178" y="59" type="curve"/>
      <point x="178" y="-151" type="line"/>
    </contour>
    <contour>
      <point x="321" y="54" type="curve" smooth="yes"/>
      <point x="408" y="54"/>
      <point x="450" y="129"/>
      <point x="450" y="270" type="curve" smooth="yes"/>
      <point x="450" y="408"/>
      <point x="401" y="471"/>
      <point x="318" y="471" type="curve" smooth="yes"/>
      <point x="261" y="471"/>
      <point x="215" y="441"/>
      <point x="178" y="395" type="curve"/>
      <point x="178" y="133" type="line"/>
      <point x="207" y="89"/>
      <point x="258" y="54"/>
    </contour>
  </outline>
</glyph>
<glyph name="dotlessi" format="1">
  <advance width="600"/>
  <unicode hex="0131"/>
  <outline>
    <contour>
      <point x="357" y="-11" type="curve" smooth="yes"/>
      <point x="281" y="-11"/>
      <point x="220" y="27"/>
      <point x="220" y="121" type="curve" smooth="yes"/>
      <point x="220" y="525" type="line"/>
      <point x="295" y="525" type="line"/>
      <point x="295" y="134" type="line" smooth="yes"/>
      <point x="295" y="81"/>
      <point x="320" y="58"/>
      <point x="370" y="58" type="curve" smooth="yes"/>
      <point x="418" y="58"/>
      <point x="453" y="71"/>
      <point x="475" y="80" type="curve"/>
      <point x="465" y="10" type="line"/>
      <point x="450" y="3"/>
      <point x="403" y="-11"/>
    </contour>
  </outline>
</glyph>
<glyph name="Lslash" format="1">
  <advance width="600"/>
  <unicode hex="0141"/>
  <outline>
    <contour>
      <point x="120" y="0" type="line"/>
      <point x="120" y="239" type="line"/>
      <point x="59" y="188" type="line"/>
      <point x="59" y="276" type="line"/>
      <point x="120" y="327" type="line"/>
      <point x="120" y="700" type="line"/>
      <point x="197" y="700" type="line"/>
      <point x="197" y="392" type="line"/>
      <point x="348" y="519" type="line"/>
      <point x="348" y="430" type="line"/>
      <point x="197" y="304" type="line"/>
      <point x="197" y="70" type="line"/>
      <point x="523" y="70" type="line"/>
      <point x="523" y="0" type="line"/>
    </contour>
  </outline>
</glyph>
<glyph name="OE" format="1">
  <advance width="600"/>
  <unicode hex="0152"/>
  <outline>
    <contour>
      <point x="205" y="-11" type="curve" smooth="yes"/>
      <point x="89" y="-11"/>
      <point x="35" y="118"/>
      <point x="35" y="350" type="curve" smooth="yes"/>
      <point x="35" y="582"/>
      <point x="89" y="711"/>
      <point x="205" y="711" type="curve" smooth="yes"/>
      <point x="256" y="711"/>
      <point x="295" y="673"/>
      <point x="315" y="622" type="curve"/>
      <point x="315" y="700" type="line"/>
      <point x="566" y="700" type="line"/>
      <point x="566" y="633" type="line"/>
      <point x="377" y="633" type="line"/>
      <point x="377" y="406" type="line"/>
      <point x="512" y="406" type="line"/>
      <point x="512" y="339" type="line"/>
      <point x="377" y="339" type="line"/>
      <point x="377" y="67" type="line"/>
      <point x="575" y="67" type="line"/>
      <point x="575" y="0" type="line"/>
      <point x="315" y="0" type="line"/>
      <point x="315" y="80" type="line"/>
      <point x="295" y="26"/>
      <point x="257" y="-11"/>
    </contour>
    <contour>
      <point x="206" y="57" type="curve" smooth="yes"/>
      <point x="267" y="57"/>
      <point x="306" y="147"/>
      <point x="306" y="350" type="curve" smooth="yes"/>
      <point x="306" y="553"/>
      <point x="265" y="643"/>
      <point x="203" y="643" type="curve" smooth="yes"/>
      <point x="142" y="643"/>
      <point x="107" y="553"/>
      <point x="107" y="350" type="curve" smooth="yes"/>
      <point x="107" y="147"/>
      <point x="143" y="57"/>
    </contour>
  </outline>
</glyph>
<glyph name="oe" format="1">
  <advance width="600"/>
  <unicode hex="0153"/>
  <outline>
    <contour>
      <point x="185" y="-11" type="curve" smooth="yes"/>
      <point x="87" y="-11"/>
      <point x="26" y="83"/>
      <point x="26" y="262" type="curve" smooth="yes"/>
      <point x="26" y="441"/>
      <point x="88" y="536"/>
      <point x="186" y="536" type="curve" smooth="yes"/>
      <point x="250" y="536"/>
      <point x="290" y="497"/>
      <point x="311" y="438" type="curve"/>
      <point x="333" y="498"/>
      <point x="370" y="536"/>
      <point x="430" y="536" type="curve" smooth="yes"/>
      <point x="525" y="536"/>
      <point x="576" y="436"/>
      <point x="576" y="262" type="curve" smooth="yes"/>
      <point x="576" y="252"/>
      <point x="575" y="246"/>
      <point x="575" y="240" type="curve"/>
      <point x="343" y="240" type="line"/>
      <point x="346" y="126"/>
      <point x="375" y="51"/>
      <point x="432" y="51" type="curve" smooth="yes"/>
      <point x="472" y="51"/>
      <point x="492" y="72"/>
      <point x="524" y="113" type="curve"/>
      <point x="567" y="75" type="line"/>
      <point x="531" y="24"/>
      <point x="493" y="-11"/>
      <point x="429" y="-11" type="curve" smooth="yes"/>
      <point x="373" y="-11"/>
      <point x="329" y="28"/>
      <point x="307" y="88" type="curve"/>
      <point x="286" y="27"/>
      <point x="249" y="-11"/>
    </contour>
    <contour>
      <point x="343" y="299" type="curve"/>
      <point x="509" y="299" type="line"/>
      <point x="505" y="405"/>
      <point x="482" y="474"/>
      <point x="429" y="474" type="curve" smooth="yes"/>
      <point x="382" y="474"/>
      <point x="349" y="420"/>
    </contour>
    <contour>
      <point x="187" y="51" type="curve" smooth="yes"/>
      <point x="246" y="51"/>
      <point x="279" y="119"/>
      <point x="279" y="263" type="curve" smooth="yes"/>
      <point x="279" y="406"/>
      <point x="244" y="474"/>
      <point x="185" y="474" type="curve" smooth="yes"/>
      <point x="125" y="474"/>
      <point x="93" y="406"/>
      <point x="93" y="263" type="curve" smooth="yes"/>
      <point x="93" y="119"/>
      <point x="126" y="51"/>
    </contour>
  </outline>
</glyph>
<glyph name="florin" format="1">
  <advance width="600"/>
  <unicode hex="0192"/>
  <outline>
    <contour>
      <point x="121" y="-193" type="line"/>
      <point x="232" y="433" type="line"/>
      <point x="131" y="433" type="line"/>
      <point x="131" y="500" type="line"/>
      <point x="243" y="500" type="line"/>
      <point x="253" y="554" type="line" smooth="yes"/>
      <point x="276" y="677"/>
      <point x="347" y="711"/>
      <point x="425" y="711" type="curve" smooth="yes"/>
      <point x="479" y="711"/>
      <point x="507" y="700"/>
      <point x="526" y="690" type="curve"/>
      <point x="526" y="612" type="line"/>
      <point x="506" y="623"/>
      <point x="473" y="641"/>
      <point x="425" y="641" type="curve" smooth="yes"/>
      <point x="381" y="641"/>
      <point x="341" y="624"/>
      <point x="329" y="560" type="curve" smooth="yes"/>
      <point x="318" y="500" type="line"/>
      <point x="459" y="500" type="line"/>
      <point x="459" y="433" type="line"/>
      <point x="307" y="433" type="line"/>
      <point x="203" y="-151" type="line"/>
    </contour>
  </outline>
</glyph>
<glyph name="circumflex" format="1">
  <advance width="600"/>
  <unicode hex="02C6"/>
  <outline>
    <contour>
      <point x="135" y="595" type="line"/>
      <point x="258" y="755" type="line"/>
      <point x="342" y="755" type="line"/>
      <point x="465" y="595" type="line"/>
      <point x="400" y="595" type="line"/>
      <point x="299" y="698" type="line"/>
      <point x="198" y="595" type="line"/>
    </contour>
  </outline>
</glyph>
<glyph name="caron" format="1">
  <advance width="600"/>
  <unicode hex="02C7"/>
  <outline>
    <contour>
      <point x="258" y="595" type="line"/>
      <point x="135" y="755" type="line"/>
      <point x="200" y="755" type="line"/>
      <point x="301" y="652" type="line"/>
      <point x="402" y="755" type="line"/>
      <point x="465" y="755" type="line"/>
      <point x="342" y="595" type="line"/>
    </contour>
  </outline>
</glyph>
<glyph name="breve" format="1">
  <advance width="600"/>
  <unicode hex="02D8"/>
  <outline>
    <contour>
      <point x="299" y="595" type="curve" smooth="yes"/>
      <point x="202" y="595"/>
      <point x="136" y="655"/>
      <point x="131" y="755" type="curve"/>
      <point x="193" y="755" type="line"/>
      <point x="198" y="685"/>
      <point x="234" y="651"/>
      <point x="301" y="651" type="curve" smooth="yes"/>
      <point x="362" y="651"/>
      <point x="402" y="683"/>
      <point x="408" y="755" type="curve"/>
      <point x="469" y="755" type="line"/>
      <point x="464" y="655"/>
      <point x="403" y="595"/>
    </contour>
  </outline>
</glyph>
<glyph name="dotaccent" format="1">
  <advance width="600"/>
  <unicode hex="02D9"/>
  <outline>
    <contour>
      <point x="300" y="603" type="curve" smooth="yes"/>
      <point x="270" y="603"/>
      <point x="245" y="628"/>
      <point x="245" y="658" type="curve" smooth="yes"/>
      <point x="245" y="688"/>
      <point x="270" y="714"/>
      <point x="300" y="714" type="curve" smooth="yes"/>
      <point x="330" y="714"/>
      <point x="355" y="688"/>
      <point x="355" y="658" type="curve" smooth="yes"/>
      <point x="355" y="628"/>
      <point x="330" y="603"/>
    </contour>
  </outline>
</glyph>
<glyph name="ring" format="1">
  <advance width="600"/>
  <unicode hex="02DA"/>
  <outline>
    <contour>
      <point x="300" y="599" type="curve" smooth="yes"/>
      <point x="232" y="599"/>
      <point x="183" y="651"/>
      <point x="183" y="716" type="curve" smooth="yes"/>
      <point x="183" y="781"/>
      <point x="232" y="832"/>
      <point x="300" y="832" type="curve" smooth="yes"/>
      <point x="368" y="832"/>
      <point x="417" y="781"/>
      <point x="417" y="716" type="curve" smooth="yes"/>
      <point x="417" y="651"/>
      <point x="368" y="599"/>
    </contour>
    <contour>
      <point x="300" y="644" type="curve" smooth="yes"/>
      <point x="343" y="644"/>
      <point x="370" y="674"/>
      <point x="370" y="716" type="curve" smooth="yes"/>
      <point x="370" y="757"/>
      <point x="343" y="787"/>
      <point x="300" y="787" type="curve" smooth="yes"/>
      <point x="257" y="787"/>
      <point x="230" y="757"/>
      <point x="230" y="716" type="curve" smooth="yes"/>
      <point x="230" y="674"/>
      <point x="257" y="644"/>
    </contour>
  </outline>
</glyph>
<glyph name="ogonek" format="1">
  <advance width="600"/>
  <unicode hex="02DB"/>
  <outline>
    <contour>
      <point x="294" y="-193" type="curve" smooth="yes"/>
      <point x="236" y="-193"/>
      <point x="203" y="-161"/>
      <point x="203" y="-110" type="curve" smooth="yes"/>
      <point x="203" y="-66"/>
      <point x="239" y="-31"/>
      <point x="287" y="0" type="curve"/>
      <point x="339" y="0" type="line"/>
      <point x="288" y="-35"/>
      <point x="265" y="-63"/>
      <point x="265" y="-101" type="curve" smooth="yes"/>
      <point x="265" y="-128"/>
      <point x="282" y="-147"/>
      <point x="311" y="-147" type="curve" smooth="yes"/>
      <point x="343" y="-147"/>
      <point x="369" y="-140"/>
      <point x="404" y="-125" type="curve"/>
      <point x="419" y="-154" type="line"/>
      <point x="379" y="-176"/>
      <point x="333" y="-193"/>
    </contour>
  </outline>
</glyph>
<glyph name="tilde" format="1">
  <advance width="600"/>
  <unicode hex="02DC"/>
  <outline>
    <contour>
      <point x="376" y="598" type="curve" smooth="yes"/>
      <point x="350" y="598"/>
      <point x="327" y="605"/>
      <point x="302" y="624" type="curve" smooth="yes"/>
      <point x="253" y="661"/>
      <point x="244" y="668"/>
      <point x="223" y="668" type="curve" smooth="yes"/>
      <point x="204" y="668"/>
      <point x="190" y="653"/>
      <point x="184" y="601" type="curve"/>
      <point x="122" y="601" type="line"/>
      <point x="122" y="690"/>
      <point x="170" y="731"/>
      <point x="224" y="731" type="curve" smooth="yes"/>
      <point x="250" y="731"/>
      <point x="274" y="724"/>
      <point x="298" y="705" type="curve" smooth="yes"/>
      <point x="346" y="668"/>
      <point x="358" y="661"/>
      <point x="377" y="661" type="curve" smooth="yes"/>
      <point x="398" y="661"/>
      <point x="410" y="681"/>
      <point x="416" y="728" type="curve"/>
      <point x="478" y="728" type="line"/>
      <point x="478" y="639"/>
      <point x="430" y="598"/>
    </contour>
  </outline>
</glyph>
<glyph name="hungarumlaut" format="1">
  <advance width="600"/>
  <unicode hex="02DD"/>
  <outline>
    <contour>
      <point x="301" y="595" type="line"/>
      <point x="394" y="755" type="line"/>
      <point x="494" y="755" type="line"/>
      <point x="357" y="595" type="line"/>
    </contour>
    <contour>
      <point x="124" y="595" type="line"/>
      <point x="217" y="755" type="line"/>
      <point x="317" y="755" type="line"/>
      <point x="180" y="595" type="line"/>
    </contour>
  </outline>
</glyph>
<glyph name="endash" format="1">
  <advance width="600"/>
  <unicode hex="2013"/>
  <outline>
    <contour>
      <point x="98" y="329" type="line"/>
      <point x="98" y="401" type="line"/>
      <point x="502" y="401" type="line"/>
      <point x="502" y="329" type="line"/>
    </contour>
  </outline>
</glyph>
<glyph name="emdash" format="1">
  <advance width="600"/>
  <unicode hex="2014"/>
  <outline>
    <contour>
      <point x="39" y="329" type="line"/>
      <point x="39" y="401" type="line"/>
      <point x="561" y="401" type="line"/>
      <point x="561" y="329" type="line"/>
    </contour>
  </outline>
</glyph>
<glyph name="quoteleft" format="1">
  <advance width="600"/>
  <unicode hex="2018"/>
  <unicode hex="02BB"/>
  <outline>
    <contour>
      <point x="213" y="428" type="line"/>
      <point x="293" y="700" type="line"/>
      <point x="356" y="700" type="line"/>
      <point x="337" y="428" type="line"/>
    </contour>
  </outline>
</glyph>
<glyph name="quoteright" format="1">
  <advance width="600"/>
  <unicode hex="2019"/>
  <unicode hex="02BC"/>
  <outline>
    <contour>
      <point x="244" y="428" type="line"/>
      <point x="263" y="700" type="line"/>
      <point x="387" y="700" type="line"/>
      <point x="307" y="428" type="line"/>
    </contour>
  </outline>
</glyph>
<glyph name="quotesinglbase" format="1">
  <advance width="600"/>
  <unicode hex="201A"/>
  <outline>
    <contour>
      <point x="242" y="-117" type="line"/>
      <point x="260" y="142" type="line"/>
      <point x="381" y="142" type="line"/>
      <point x="303" y="-117" type="line"/>
    </contour>
  </outline>
</glyph>
<glyph name="quotedblleft" format="1">
  <advance width="600"/>
  <unicode hex="201C"/>
  <outline>
    <contour>
      <point x="333" y="428" type="line"/>
      <point x="409" y="700" type="line"/>
      <point x="469" y="700" type="line"/>
      <point x="450" y="428" type="line"/>
    </contour>
    <contour>
      <point x="101" y="428" type="line"/>
      <point x="177" y="700" type="line"/>
      <point x="237" y="700" type="line"/>
      <point x="218" y="428" type="line"/>
    </contour>
  </outline>
</glyph>
<glyph name="quotedblright" format="1">
  <advance width="600"/>
  <unicode hex="201D"/>
  <outline>
    <contour>
      <point x="363" y="428" type="line"/>
      <point x="382" y="700" type="line"/>
      <point x="499" y="700" type="line"/>
      <point x="423" y="428" type="line"/>
    </contour>
    <contour>
      <point x="131" y="428" type="line"/>
      <point x="150" y="700" type="line"/>
      <point x="267" y="700" type="line"/>
      <point x="191" y="428" type="line"/>
    </contour>
  </outline>
</glyph>
<glyph name="quotedblbase" format="1">
  <advance width="600"/>
  <unicode hex="201E"/>
  <outline>
    <contour>
      <point x="374" y="-115" type="line"/>
      <point x="392" y="137" type="line"/>
      <point x="509" y="137" type="line"/>
      <point x="434" y="-115" type="line"/>
    </contour>
    <contour>
      <point x="113" y="-115" type="line"/>
      <point x="130" y="137" type="line"/>
      <point x="248" y="137" type="line"/>
      <point x="172" y="-115" type="line"/>
    </contour>
  </outline>
</glyph>
<glyph name="dagger" format="1">
  <advance width="600"/>
  <unicode hex="2020"/>
  <outline>
    <contour>
      <point x="266" y="-100" type="line"/>
      <point x="266" y="398" type="line"/>
      <point x="73" y="398" type="line"/>
      <point x="73" y="464" type="line"/>
      <point x="266" y="464" type="line"/>
      <point x="266" y="700" type="line"/>
      <point x="334" y="700" type="line"/>
      <point x="334" y="464" type="line"/>
      <point x="527" y="464" type="line"/>
      <point x="527" y="398" type="line"/>
      <point x="334" y="398" type="line"/>
      <point x="334" y="-100" type="line"/>
    </contour>
  </outline>
</glyph>
<glyph name="daggerdbl" format="1">
  <advance width="600"/>
  <unicode hex="2021"/>
  <outline>
    <contour>
      <point x="266" y="-100" type="line"/>
      <point x="266" y="136" type="line"/>
      <point x="73" y="136" type="line"/>
      <point x="73" y="201" type="line"/>
      <point x="266" y="201" type="line"/>
      <point x="266" y="399" type="line"/>
      <point x="73" y="399" type="line"/>
      <point x="73" y="464" type="line"/>
      <point x="266" y="464" type="line"/>
      <point x="266" y="700" type="line"/>
      <point x="334" y="700" type="line"/>
      <point x="334" y="464" type="line"/>
      <point x="527" y="464" type="line"/>
      <point x="527" y="399" type="line"/>
      <point x="334" y="399" type="line"/>
      <point x="334" y="201" type="line"/>
      <point x="527" y="201" type="line"/>
      <point x="527" y="136" type="line"/>
      <point x="334" y="136" type="line"/>
      <point x="334" y="-100" type="line"/>
    </contour>
  </outline>
</glyph>
<glyph name="ellipsis" format="1">
  <advance width="600"/>
  <unicode hex="2026"/>
  <outline>
    <contour>
      <point x="487" y="-11" type="curve" smooth="yes"/>
      <point x="458" y="-11"/>
      <point x="435" y="12"/>
      <point x="435" y="42" type="curve" smooth="yes"/>
      <point x="435" y="71"/>
      <point x="458" y="96"/>
      <point x="487" y="96" type="curve" smooth="yes"/>
      <point x="517" y="96"/>
      <point x="539" y="71"/>
      <point x="539" y="42" type="curve" smooth="yes"/>
      <point x="539" y="12"/>
      <point x="517" y="-11"/>
    </contour>
    <contour>
      <point x="300" y="-11" type="curve" smooth="yes"/>
      <point x="271" y="-11"/>
      <point x="249" y="12"/>
      <point x="249" y="42" type="curve" smooth="yes"/>
      <point x="249" y="71"/>
      <point x="271" y="96"/>
      <point x="300" y="96" type="curve" smooth="yes"/>
      <point x="331" y="96"/>
      <point x="352" y="71"/>
      <point x="352" y="42" type="curve" smooth="yes"/>
      <point x="352" y="12"/>
      <point x="331" y="-11"/>
    </contour>
    <contour>
      <point x="114" y="-11" type="curve" smooth="yes"/>
      <point x="84" y="-11"/>
      <point x="62" y="12"/>
      <point x="62" y="42" type="curve" smooth="yes"/>
      <point x="62" y="71"/>
      <point x="84" y="96"/>
      <point x="114" y="96" type="curve" smooth="yes"/>
      <point x="144" y="96"/>
      <point x="166" y="71"/>
      <point x="166" y="42" type="curve" smooth="yes"/>
      <point x="166" y="12"/>
      <point x="144" y="-11"/>
    </contour>
  </outline>
</glyph>
<glyph name="perthousand" format="1">
  <advance width="600"/>
  <unicode hex="2030"/>
  <outline>
    <contour>
      <point x="88" y="334" type="curve" smooth="yes"/>
      <point x="37" y="334"/>
      <point x="5" y="393"/>
      <point x="5" y="523" type="curve" smooth="yes"/>
      <point x="5" y="653"/>
      <point x="38" y="711"/>
      <point x="88" y="711" type="curve" smooth="yes"/>
      <point x="138" y="711"/>
      <point x="171" y="653"/>
      <point x="171" y="523" type="curve" smooth="yes"/>
      <point x="171" y="393"/>
      <point x="139" y="334"/>
    </contour>
    <contour>
      <point x="48" y="0" type="line"/>
      <point x="305" y="700" type="line"/>
      <point x="355" y="700" type="line"/>
      <point x="94" y="0" type="line"/>
    </contour>
    <contour>
      <point x="512" y="-11" type="curve" smooth="yes"/>
      <point x="461" y="-11"/>
      <point x="429" y="48"/>
      <point x="429" y="178" type="curve" smooth="yes"/>
      <point x="429" y="308"/>
      <point x="462" y="366"/>
      <point x="512" y="366" type="curve" smooth="yes"/>
      <point x="562" y="366"/>
      <point x="595" y="308"/>
      <point x="595" y="178" type="curve" smooth="yes"/>
      <point x="595" y="48"/>
      <point x="563" y="-11"/>
    </contour>
    <contour>
      <point x="311" y="-11" type="curve" smooth="yes"/>
      <point x="260" y="-11"/>
      <point x="228" y="48"/>
      <point x="228" y="178" type="curve" smooth="yes"/>
      <point x="228" y="308"/>
      <point x="261" y="366"/>
      <point x="311" y="366" type="curve" smooth="yes"/>
      <point x="361" y="366"/>
      <point x="394" y="308"/>
      <point x="394" y="178" type="curve" smooth="yes"/>
      <point x="394" y="48"/>
      <point x="362" y="-11"/>
    </contour>
    <contour>
      <point x="88" y="382" type="curve" smooth="yes"/>
      <point x="112" y="382"/>
      <point x="123" y="419"/>
      <point x="123" y="522" type="curve" smooth="yes"/>
      <point x="123" y="625"/>
      <point x="112" y="662"/>
      <point x="87" y="662" type="curve" smooth="yes"/>
      <point x="62" y="662"/>
      <point x="53" y="626"/>
      <point x="53" y="524" type="curve" smooth="yes"/>
      <point x="53" y="421"/>
      <point x="64" y="382"/>
    </contour>
    <contour>
      <point x="512" y="37" type="curve" smooth="yes"/>
      <point x="536" y="37"/>
      <point x="547" y="74"/>
      <point x="547" y="177" type="curve" smooth="yes"/>
      <point x="547" y="280"/>
      <point x="536" y="317"/>
      <point x="511" y="317" type="curve" smooth="yes"/>
      <point x="486" y="317"/>
      <point x="477" y="281"/>
      <point x="477" y="179" type="curve" smooth="yes"/>
      <point x="477" y="76"/>
      <point x="488" y="37"/>
    </contour>
    <contour>
      <point x="311" y="37" type="curve" smooth="yes"/>
      <point x="335" y="37"/>
      <point x="346" y="74"/>
      <point x="346" y="177" type="curve" smooth="yes"/>
      <point x="346" y="280"/>
      <point x="335" y="317"/>
      <point x="310" y="317" type="curve" smooth="yes"/>
      <point x="285" y="317"/>
      <point x="276" y="281"/>
      <point x="276" y="179" type="curve" smooth="yes"/>
      <point x="276" y="76"/>
      <point x="287" y="37"/>
    </contour>
  </outline>
</glyph>
<glyph name="guilsinglleft" format="1">
  <advance width="600"/>
  <unicode hex="2039"/>
  <outline>
    <contour>
      <point x="367" y="0" type="line"/>
      <point x="121" y="262" type="line"/>
      <point x="367" y="525" type="line"/>
      <point x="457" y="525" type="line"/>
      <point x="210" y="263" type="line"/>
      <point x="457" y="0" type="line"/>
    </contour>
  </outline>
</glyph>
<glyph name="guilsinglright" format="1">
  <advance width="600"/>
  <unicode hex="203A"/>
  <outline>
    <contour>
      <point x="143" y="0" type="line"/>
      <point x="390" y="262" type="line"/>
      <point x="143" y="525" type="line"/>
      <point x="233" y="525" type="line"/>
      <point x="479" y="263" type="line"/>
      <point x="233" y="0" type="line"/>
    </contour>
  </outline>
</glyph>
<glyph name="fraction" format="1">
  <advance width="600"/>
  <unicode hex="2044"/>
  <outline>
    <contour>
      <point x="62" y="0" type="line"/>
      <point x="466" y="700" type="line"/>
      <point x="538" y="700" type="line"/>
      <point x="134" y="0" type="line"/>
    </contour>
  </outline>
</glyph>
<glyph name="Euro" format="1">
  <advance width="600"/>
  <unicode hex="20AC"/>
  <outline>
    <contour>
      <point x="346" y="-11" type="curve" smooth="yes"/>
      <point x="217" y="-11"/>
      <point x="131" y="83"/>
      <point x="108" y="250" type="curve"/>
      <point x="31" y="250" type="line"/>
      <point x="31" y="312" type="line"/>
      <point x="102" y="312" type="line"/>
      <point x="101" y="324"/>
      <point x="101" y="337"/>
      <point x="101" y="349" type="curve" smooth="yes"/>
      <point x="101" y="365"/>
      <point x="101" y="381"/>
      <point x="102" y="397" type="curve"/>
      <point x="31" y="397" type="line"/>
      <point x="31" y="459" type="line"/>
      <point x="109" y="459" type="line"/>
      <point x="136" y="622"/>
      <point x="224" y="711"/>
      <point x="349" y="711" type="curve" smooth="yes"/>
      <point x="444" y="711"/>
      <point x="492" y="672"/>
      <point x="540" y="591" type="curve"/>
      <point x="481" y="551" type="line"/>
      <point x="440" y="619"/>
      <point x="414" y="643"/>
      <point x="347" y="643" type="curve" smooth="yes"/>
      <point x="271" y="643"/>
      <point x="206" y="591"/>
      <point x="184" y="459" type="curve"/>
      <point x="427" y="459" type="line"/>
      <point x="427" y="397" type="line"/>
      <point x="177" y="397" type="line"/>
      <point x="176" y="382"/>
      <point x="176" y="367"/>
      <point x="176" y="351" type="curve" smooth="yes"/>
      <point x="176" y="337"/>
      <point x="176" y="324"/>
      <point x="177" y="312" type="curve"/>
      <point x="427" y="312" type="line"/>
      <point x="427" y="250" type="line"/>
      <point x="183" y="250" type="line"/>
      <point x="207" y="86"/>
      <point x="293" y="57"/>
      <point x="349" y="57" type="curve" smooth="yes"/>
      <point x="417" y="57"/>
      <point x="447" y="87"/>
      <point x="489" y="150" type="curve"/>
      <point x="543" y="112" type="line"/>
      <point x="495" y="38"/>
      <point x="445" y="-11"/>
    </contour>
  </outline>
</glyph>
<glyph name="uni2117" format="1">
  <advance width="600"/>
  <unicode hex="2117"/>
  <outline>
    <contour>
      <point x="299" y="-11" type="curve" smooth="yes"/>
      <point x="151" y="-11"/>
      <point x="62" y="135"/>
      <point x="62" y="350" type="curve" smooth="yes"/>
      <point x="62" y="565"/>
      <point x="151" y="711"/>
      <point x="299" y="711" type="curve" smooth="yes"/>
      <point x="449" y="711"/>
      <point x="539" y="565"/>
      <point x="539" y="350" type="curve" smooth="yes"/>
      <point x="539" y="135"/>
      <point x="449" y="-11"/>
    </contour>
    <contour>
      <point x="299" y="34" type="curve" smooth="yes"/>
      <point x="425" y="34"/>
      <point x="492" y="163"/>
      <point x="492" y="350" type="curve" smooth="yes"/>
      <point x="492" y="537"/>
      <point x="425" y="666"/>
      <point x="299" y="666" type="curve" smooth="yes"/>
      <point x="174" y="666"/>
      <point x="108" y="537"/>
      <point x="108" y="350" type="curve" smooth="yes"/>
      <point x="108" y="163"/>
      <point x="174" y="34"/>
    </contour>
    <contour>
      <point x="225" y="152" type="line"/>
      <point x="225" y="545" type="line"/>
      <point x="305" y="545" type="line" smooth="yes"/>
      <point x="362" y="545"/>
      <point x="406" y="512"/>
      <point x="406" y="435" type="curve" smooth="yes"/>
      <point x="406" y="356"/>
      <point x="357" y="321"/>
      <point x="302" y="321" type="curve" smooth="yes"/>
      <point x="272" y="321" type="line"/>
      <point x="272" y="152" type="line"/>
    </contour>
    <contour>
      <point x="272" y="366" type="line"/>
      <point x="302" y="366" type="line" smooth="yes"/>
      <point x="339" y="366"/>
      <point x="359" y="387"/>
      <point x="359" y="436" type="curve" smooth="yes"/>
      <point x="359" y="483"/>
      <point x="338" y="501"/>
      <point x="303" y="501" type="curve" smooth="yes"/>
      <point x="272" y="501" type="line"/>
    </contour>
  </outline>
</glyph>
<glyph name="trademark" format="1">
  <advance width="600"/>
  <unicode hex="2122"/>
  <outline>
    <contour>
      <point x="115" y="304" type="line"/>
      <point x="115" y="660" type="line"/>
      <point x="36" y="660" type="line"/>
      <point x="36" y="700" type="line"/>
      <point x="239" y="700" type="line"/>
      <point x="239" y="660" type="line"/>
      <point x="159" y="660" type="line"/>
      <point x="159" y="304" type="line"/>
    </contour>
    <contour>
      <point x="417" y="294" type="line"/>
      <point x="347" y="527" type="line" smooth="yes"/>
      <point x="341" y="546"/>
      <point x="335" y="566"/>
      <point x="332" y="580" type="curve"/>
      <point x="332" y="572"/>
      <point x="332" y="547"/>
      <point x="332" y="537" type="curve" smooth="yes"/>
      <point x="332" y="304" type="line"/>
      <point x="291" y="304" type="line"/>
      <point x="291" y="700" type="line"/>
      <point x="338" y="700" type="line"/>
      <point x="400" y="493" type="line" smooth="yes"/>
      <point x="408" y="466"/>
      <point x="414" y="439"/>
      <point x="418" y="420" type="curve"/>
      <point x="422" y="440"/>
      <point x="428" y="466"/>
      <point x="436" y="493" type="curve" smooth="yes"/>
      <point x="497" y="700" type="line"/>
      <point x="544" y="700" type="line"/>
      <point x="544" y="304" type="line"/>
      <point x="503" y="304" type="line"/>
      <point x="503" y="537" type="line" smooth="yes"/>
      <point x="503" y="547"/>
      <point x="503" y="572"/>
      <point x="503" y="582" type="curve"/>
      <point x="501" y="567"/>
      <point x="495" y="547"/>
      <point x="489" y="527" type="curve" smooth="yes"/>
    </contour>
  </outline>
</glyph>
<glyph name="arrowleft" format="1">
  <advance width="600"/>
  <unicode hex="2190"/>
  <outline>
    <contour>
      <point x="213" y="231" type="curve"/>
      <point x="210" y="229"/>
      <point x="206" y="230"/>
      <point x="202" y="233" type="curve" smooth="yes"/>
      <point x="38" y="345" type="line"/>
      <point x="202" y="457" type="line" smooth="yes"/>
      <point x="206" y="460"/>
      <point x="210" y="461"/>
      <point x="213" y="459" type="curve"/>
      <point x="215" y="457"/>
      <point x="217" y="454"/>
      <point x="215" y="450" type="curve" smooth="yes"/>
      <point x="186" y="378" type="line"/>
      <point x="532" y="378" type="line"/>
      <point x="532" y="312" type="line"/>
      <point x="186" y="312" type="line"/>
      <point x="215" y="240" type="line" smooth="yes"/>
      <point x="217" y="236"/>
      <point x="215" y="233"/>
    </contour>
  </outline>
</glyph>
<glyph name="arrowup" format="1">
  <advance width="600"/>
  <unicode hex="2191"/>
  <outline>
    <contour>
      <point x="261" y="0" type="line"/>
      <point x="261" y="529" type="line"/>
      <point x="178" y="495" type="line" smooth="yes"/>
      <point x="174" y="493"/>
      <point x="171" y="495"/>
      <point x="168" y="499" type="curve"/>
      <point x="165" y="502"/>
      <point x="166" y="508"/>
      <point x="170" y="512" type="curve"/>
      <point x="299" y="715" type="line"/>
      <point x="429" y="512" type="line" smooth="yes"/>
      <point x="432" y="508"/>
      <point x="433" y="502"/>
      <point x="431" y="499" type="curve" smooth="yes"/>
      <point x="428" y="495"/>
      <point x="425" y="493"/>
      <point x="421" y="495" type="curve" smooth="yes"/>
      <point x="338" y="529" type="line"/>
      <point x="338" y="0" type="line"/>
    </contour>
  </outline>
</glyph>
<glyph name="arrowright" format="1">
  <advance width="600"/>
  <unicode hex="2192"/>
  <outline>
    <contour>
      <point x="387" y="231" type="curve" smooth="yes"/>
      <point x="384" y="233"/>
      <point x="383" y="236"/>
      <point x="385" y="240" type="curve"/>
      <point x="413" y="312" type="line"/>
      <point x="67" y="312" type="line"/>
      <point x="67" y="378" type="line"/>
      <point x="413" y="378" type="line"/>
      <point x="385" y="450" type="line"/>
      <point x="383" y="454"/>
      <point x="384" y="457"/>
      <point x="387" y="459" type="curve" smooth="yes"/>
      <point x="390" y="461"/>
      <point x="394" y="460"/>
      <point x="397" y="457" type="curve"/>
      <point x="562" y="345" type="line"/>
      <point x="397" y="233" type="line"/>
      <point x="394" y="230"/>
      <point x="390" y="229"/>
    </contour>
  </outline>
</glyph>
<glyph name="arrowdown" format="1">
  <advance width="600"/>
  <unicode hex="2193"/>
  <outline>
    <contour>
      <point x="299" y="-15" type="line"/>
      <point x="170" y="188" type="line"/>
      <point x="166" y="192"/>
      <point x="165" y="198"/>
      <point x="168" y="201" type="curve"/>
      <point x="171" y="205"/>
      <point x="174" y="207"/>
      <point x="178" y="205" type="curve" smooth="yes"/>
      <point x="261" y="171" type="line"/>
      <point x="261" y="700" type="line"/>
      <point x="338" y="700" type="line"/>
      <point x="338" y="171" type="line"/>
      <point x="421" y="205" type="line" smooth="yes"/>
      <point x="425" y="207"/>
      <point x="428" y="205"/>
      <point x="431" y="201" type="curve" smooth="yes"/>
      <point x="433" y="198"/>
      <point x="432" y="192"/>
      <point x="429" y="188" type="curve" smooth="yes"/>
    </contour>
  </outline>
</glyph>
<glyph name="arrowboth" format="1">
  <advance width="600"/>
  <unicode hex="2194"/>
  <outline>
    <contour>
      <point x="185" y="240" type="curve"/>
      <point x="182" y="240"/>
      <point x="180" y="241"/>
      <point x="176" y="242" type="curve"/>
      <point x="33" y="345" type="line"/>
      <point x="176" y="448" type="line"/>
      <point x="180" y="449"/>
      <point x="182" y="450"/>
      <point x="185" y="450" type="curve"/>
      <point x="187" y="448"/>
      <point x="187" y="445"/>
      <point x="185" y="441" type="curve"/>
      <point x="160" y="374" type="line"/>
      <point x="440" y="374" type="line"/>
      <point x="415" y="441" type="line"/>
      <point x="413" y="445"/>
      <point x="413" y="448"/>
      <point x="416" y="450" type="curve"/>
      <point x="419" y="450"/>
      <point x="421" y="449"/>
      <point x="424" y="448" type="curve"/>
      <point x="568" y="345" type="line"/>
      <point x="424" y="242" type="line"/>
      <point x="421" y="241"/>
      <point x="419" y="240"/>
      <point x="416" y="240" type="curve"/>
      <point x="413" y="242"/>
      <point x="413" y="245"/>
      <point x="415" y="249" type="curve"/>
      <point x="440" y="316" type="line"/>
      <point x="160" y="316" type="line"/>
      <point x="185" y="249" type="line"/>
      <point x="187" y="245"/>
      <point x="187" y="242"/>
    </contour>
  </outline>
</glyph>
<glyph name="arrowupdn" format="1">
  <advance width="600"/>
  <unicode hex="2195"/>
  <outline>
    <contour>
      <point x="299" y="-15" type="line"/>
      <point x="170" y="188" type="line"/>
      <point x="166" y="192"/>
      <point x="165" y="198"/>
      <point x="168" y="201" type="curve"/>
      <point x="171" y="205"/>
      <point x="174" y="207"/>
      <point x="178" y="205" type="curve" smooth="yes"/>
      <point x="261" y="171" type="line"/>
      <point x="261" y="529" type="line"/>
      <point x="178" y="495" type="line" smooth="yes"/>
      <point x="174" y="493"/>
      <point x="171" y="495"/>
      <point x="168" y="499" type="curve"/>
      <point x="165" y="502"/>
      <point x="166" y="508"/>
      <point x="170" y="512" type="curve"/>
      <point x="299" y="715" type="line"/>
      <point x="429" y="512" type="line" smooth="yes"/>
      <point x="432" y="508"/>
      <point x="433" y="502"/>
      <point x="431" y="499" type="curve" smooth="yes"/>
      <point x="428" y="495"/>
      <point x="425" y="493"/>
      <point x="421" y="495" type="curve" smooth="yes"/>
      <point x="338" y="529" type="line"/>
      <point x="338" y="171" type="line"/>
      <point x="421" y="205" type="line" smooth="yes"/>
      <point x="425" y="207"/>
      <point x="428" y="205"/>
      <point x="431" y="201" type="curve" smooth="yes"/>
      <point x="433" y="198"/>
      <point x="432" y="192"/>
      <point x="429" y="188" type="curve" smooth="yes"/>
    </contour>
  </outline>
</glyph>
<glyph name="radical" format="1">
  <advance width="600"/>
  <unicode hex="221A"/>
  <outline>
    <contour>
      <point x="215" y="0" type="line"/>
      <point x="63" y="340" type="line"/>
      <point x="142" y="340" type="line"/>
      <point x="190" y="228" type="line" smooth="yes"/>
      <point x="207" y="189"/>
      <point x="236" y="112"/>
      <point x="248" y="77" type="curve"/>
      <point x="259" y="112"/>
      <point x="284" y="189"/>
      <point x="300" y="233" type="curve" smooth="yes"/>
      <point x="464" y="700" type="line"/>
      <point x="538" y="700" type="line"/>
      <point x="284" y="0" type="line"/>
    </contour>
  </outline>
</glyph>
<glyph name="apple" format="1">
  <advance width="600"/>
  <unicode hex="F8FF"/>
  <outline>
    <contour>
      <point x="300" y="-15" type="line"/>
      <point x="196" y="128" type="line" smooth="yes"/>
      <point x="193" y="132"/>
      <point x="192" y="134"/>
      <point x="193" y="137" type="curve" smooth="yes"/>
      <point x="194" y="140"/>
      <point x="198" y="139"/>
      <point x="202" y="137" type="curve" smooth="yes"/>
      <point x="270" y="110" type="line"/>
      <point x="270" y="316" type="line"/>
      <point x="158" y="316" type="line"/>
      <point x="183" y="247" type="line"/>
      <point x="185" y="243"/>
      <point x="184" y="239"/>
      <point x="182" y="238" type="curve"/>
      <point x="179" y="237"/>
      <point x="177" y="239"/>
      <point x="174" y="241" type="curve" smooth="yes"/>
      <point x="32" y="345" type="line"/>
      <point x="174" y="449" type="line" smooth="yes"/>
      <point x="178" y="452"/>
      <point x="179" y="453"/>
      <point x="182" y="452" type="curve"/>
      <point x="184" y="451"/>
      <point x="185" y="447"/>
      <point x="183" y="443" type="curve"/>
      <point x="158" y="374" type="line"/>
      <point x="270" y="374" type="line"/>
      <point x="270" y="590" type="line"/>
      <point x="202" y="563" type="line" smooth="yes"/>
      <point x="198" y="561"/>
      <point x="194" y="561"/>
      <point x="193" y="564" type="curve" smooth="yes"/>
      <point x="192" y="567"/>
      <point x="194" y="569"/>
      <point x="196" y="572" type="curve" smooth="yes"/>
      <point x="300" y="715" type="line"/>
      <point x="404" y="572" type="line" smooth="yes"/>
      <point x="406" y="569"/>
      <point x="407" y="568"/>
      <point x="406" y="565" type="curve" smooth="yes"/>
      <point x="405" y="562"/>
      <point x="402" y="561"/>
      <point x="398" y="563" type="curve"/>
      <point x="329" y="590" type="line"/>
      <point x="329" y="374" type="line"/>
      <point x="441" y="374" type="line"/>
      <point x="416" y="443" type="line"/>
      <point x="414" y="447"/>
      <point x="415" y="451"/>
      <point x="417" y="452" type="curve"/>
      <point x="420" y="453"/>
      <point x="421" y="452"/>
      <point x="425" y="449" type="curve" smooth="yes"/>
      <point x="568" y="345" type="line"/>
      <point x="425" y="241" type="line" smooth="yes"/>
      <point x="422" y="239"/>
      <point x="420" y="237"/>
      <point x="417" y="238" type="curve"/>
      <point x="415" y="239"/>
      <point x="414" y="243"/>
      <point x="416" y="247" type="curve"/>
      <point x="441" y="316" type="line"/>
      <point x="329" y="316" type="line"/>
      <point x="329" y="110" type="line"/>
      <point x="398" y="137" type="line"/>
      <point x="402" y="138"/>
      <point x="405" y="139"/>
      <point x="406" y="136" type="curve" smooth="yes"/>
      <point x="407" y="133"/>
      <point x="406" y="130"/>
      <point x="404" y="128" type="curve"/>
    </contour>
  </outline>
</glyph>
<glyph name="fi" format="1">
  <advance width="600"/>
  <unicode hex="FB01"/>
  <outline>
    <contour>
      <point x="474" y="614" type="curve" smooth="yes"/>
      <point x="439" y="614"/>
      <point x="417" y="640"/>
      <point x="417" y="671" type="curve" smooth="yes"/>
      <point x="417" y="704"/>
      <point x="439" y="728"/>
      <point x="474" y="728" type="curve" smooth="yes"/>
      <point x="505" y="728"/>
      <point x="531" y="704"/>
      <point x="531" y="671" type="curve" smooth="yes"/>
      <point x="531" y="640"/>
      <point x="505" y="614"/>
    </contour>
    <contour>
      <point x="120" y="0" type="line"/>
      <point x="120" y="462" type="line"/>
      <point x="47" y="462" type="line"/>
      <point x="47" y="525" type="line"/>
      <point x="120" y="525" type="line"/>
      <point x="120" y="597" type="line" smooth="yes"/>
      <point x="120" y="691"/>
      <point x="171" y="726"/>
      <point x="244" y="726" type="curve" smooth="yes"/>
      <point x="274" y="726"/>
      <point x="292" y="723"/>
      <point x="310" y="717" type="curve"/>
      <point x="310" y="646" type="line"/>
      <point x="293" y="654"/>
      <point x="273" y="658"/>
      <point x="249" y="658" type="curve" smooth="yes"/>
      <point x="218" y="658"/>
      <point x="195" y="647"/>
      <point x="195" y="603" type="curve" smooth="yes"/>
      <point x="195" y="525" type="line"/>
      <point x="298" y="525" type="line"/>
      <point x="298" y="462" type="line"/>
      <point x="195" y="462" type="line"/>
      <point x="195" y="0" type="line"/>
    </contour>
    <contour>
      <point x="436" y="0" type="line"/>
      <point x="436" y="525" type="line"/>
      <point x="511" y="525" type="line"/>
      <point x="511" y="0" type="line"/>
    </contour>
  </outline>
</glyph>
<glyph name="fl" format="1">
  <advance width="600"/>
  <unicode hex="FB02"/>
  <outline>
    <contour>
      <point x="436" y="0" type="line"/>
      <point x="436" y="687" type="line"/>
      <point x="511" y="729" type="line"/>
      <point x="511" y="0" type="line"/>
    </contour>
    <contour>
      <point x="120" y="0" type="line"/>
      <point x="120" y="462" type="line"/>
      <point x="47" y="462" type="line"/>
      <point x="47" y="525" type="line"/>
      <point x="120" y="525" type="line"/>
      <point x="120" y="597" type="line" smooth="yes"/>
      <point x="120" y="691"/>
      <point x="171" y="726"/>
      <point x="244" y="726" type="curve" smooth="yes"/>
      <point x="274" y="726"/>
      <point x="292" y="723"/>
      <point x="310" y="717" type="curve"/>
      <point x="310" y="646" type="line"/>
      <point x="293" y="654"/>
      <point x="273" y="658"/>
      <point x="249" y="658" type="curve" smooth="yes"/>
      <point x="218" y="658"/>
      <point x="195" y="647"/>
      <point x="195" y="603" type="curve" smooth="yes"/>
      <point x="195" y="525" type="line"/>
      <point x="298" y="525" type="line"/>
      <point x="298" y="462" type="line"/>
      <point x="195" y="462" type="line"/>
      <point x="195" y="0" type="line"/>
    </contour>
  </outline>
</glyph>
<glyph name="bullet" format="1">
  <advance width="600"/>
  <outline>
    <contour>
      <point x="300" y="214" type="curve" smooth="yes"/>
      <point x="216" y="214"/>
      <point x="148" y="282"/>
      <point x="148" y="366" type="curve" smooth="yes"/>
      <point x="148" y="450"/>
      <point x="216" y="521"/>
      <point x="300" y="521" type="curve" smooth="yes"/>
      <point x="384" y="521"/>
      <point x="452" y="450"/>
      <point x="452" y="366" type="curve" smooth="yes"/>
      <point x="452" y="282"/>
      <point x="384" y="214"/>
    </contour>
  </outline>
</glyph>
<glyph name="macron" format="1">
  <advance width="600"/>
  <outline>
    <contour>
      <point x="164" y="618" type="line"/>
      <point x="164" y="688" type="line"/>
      <point x="436" y="688" type="line"/>
      <point x="436" y="618" type="line"/>
    </contour>
  </outline>
</glyph>
<glyph name="registered" format="1">
  <advance width="600"/>
  <outline>
    <contour>
      <point x="299" y="-11" type="curve" smooth="yes"/>
      <point x="151" y="-11"/>
      <point x="62" y="135"/>
      <point x="62" y="350" type="curve" smooth="yes"/>
      <point x="62" y="565"/>
      <point x="151" y="711"/>
      <point x="299" y="711" type="curve" smooth="yes"/>
      <point x="449" y="711"/>
      <point x="539" y="565"/>
      <point x="539" y="350" type="curve" smooth="yes"/>
      <point x="539" y="135"/>
      <point x="449" y="-11"/>
    </contour>
    <contour>
      <point x="299" y="34" type="curve" smooth="yes"/>
      <point x="425" y="34"/>
      <point x="492" y="163"/>
      <point x="492" y="350" type="curve" smooth="yes"/>
      <point x="492" y="537"/>
      <point x="425" y="666"/>
      <point x="299" y="666" type="curve" smooth="yes"/>
      <point x="174" y="666"/>
      <point x="108" y="537"/>
      <point x="108" y="350" type="curve" smooth="yes"/>
      <point x="108" y="163"/>
      <point x="174" y="34"/>
    </contour>
    <contour>
      <point x="216" y="162" type="line"/>
      <point x="216" y="555" type="line"/>
      <point x="300" y="555" type="line" smooth="yes"/>
      <point x="357" y="555"/>
      <point x="400" y="523"/>
      <point x="400" y="450" type="curve" smooth="yes"/>
      <point x="400" y="401"/>
      <point x="379" y="369"/>
      <point x="348" y="352" type="curve"/>
      <point x="405" y="162" type="line"/>
      <point x="353" y="162" type="line"/>
      <point x="301" y="339" type="line"/>
      <point x="296" y="338"/>
      <point x="272" y="338"/>
      <point x="264" y="338" type="curve"/>
      <point x="264" y="162" type="line"/>
    </contour>
    <contour>
      <point x="264" y="382" type="line"/>
      <point x="297" y="382" type="line" smooth="yes"/>
      <point x="333" y="382"/>
      <point x="352" y="406"/>
      <point x="352" y="449" type="curve" smooth="yes"/>
      <point x="352" y="491"/>
      <point x="333" y="512"/>
      <point x="298" y="512" type="curve" smooth="yes"/>
      <point x="264" y="512" type="line"/>
    </contour>
  </outline>
</glyph>
